G04 #@! TF.GenerationSoftware,KiCad,Pcbnew,8.0.4*
G04 #@! TF.CreationDate,2024-11-26T19:46:24-06:00*
G04 #@! TF.ProjectId,Flash-2716,466c6173-682d-4323-9731-362e6b696361,rev?*
G04 #@! TF.SameCoordinates,Original*
G04 #@! TF.FileFunction,Copper,L1,Top*
G04 #@! TF.FilePolarity,Positive*
%FSLAX46Y46*%
G04 Gerber Fmt 4.6, Leading zero omitted, Abs format (unit mm)*
G04 Created by KiCad (PCBNEW 8.0.4) date 2024-11-26 19:46:24*
%MOMM*%
%LPD*%
G01*
G04 APERTURE LIST*
G04 #@! TA.AperFunction,ComponentPad*
%ADD10C,1.700000*%
G04 #@! TD*
G04 #@! TA.AperFunction,ComponentPad*
%ADD11O,1.700000X1.700000*%
G04 #@! TD*
G04 #@! TA.AperFunction,ComponentPad*
%ADD12R,1.600000X1.600000*%
G04 #@! TD*
G04 #@! TA.AperFunction,ComponentPad*
%ADD13O,1.600000X1.600000*%
G04 #@! TD*
G04 #@! TA.AperFunction,ComponentPad*
%ADD14R,1.700000X1.700000*%
G04 #@! TD*
G04 #@! TA.AperFunction,ComponentPad*
%ADD15R,1.422400X1.422400*%
G04 #@! TD*
G04 #@! TA.AperFunction,ComponentPad*
%ADD16C,1.422400*%
G04 #@! TD*
G04 #@! TA.AperFunction,ComponentPad*
%ADD17O,1.422400X1.422400*%
G04 #@! TD*
G04 #@! TA.AperFunction,ViaPad*
%ADD18C,1.000000*%
G04 #@! TD*
G04 #@! TA.AperFunction,Conductor*
%ADD19C,0.254000*%
G04 #@! TD*
G04 #@! TA.AperFunction,Conductor*
%ADD20C,0.508000*%
G04 #@! TD*
G04 APERTURE END LIST*
D10*
X148590000Y-76215000D03*
D11*
X148590000Y-78755000D03*
X148590000Y-81295000D03*
D10*
X148590000Y-99075000D03*
D11*
X148590000Y-101615000D03*
X148590000Y-104155000D03*
D12*
X106680000Y-76200000D03*
D13*
X106680000Y-78740000D03*
X106680000Y-81280000D03*
X106680000Y-83820000D03*
X106680000Y-86360000D03*
X106680000Y-88900000D03*
X106680000Y-91440000D03*
X106680000Y-93980000D03*
X106680000Y-96520000D03*
X106680000Y-99060000D03*
X106680000Y-101600000D03*
X106680000Y-104140000D03*
X121920000Y-104140000D03*
X121920000Y-101600000D03*
X121920000Y-99060000D03*
X121920000Y-96520000D03*
X121920000Y-93980000D03*
X121920000Y-91440000D03*
X121920000Y-88900000D03*
X121920000Y-86360000D03*
X121920000Y-83820000D03*
X121920000Y-81280000D03*
X121920000Y-78740000D03*
X121920000Y-76200000D03*
D10*
X146050000Y-78755000D03*
D12*
X104140000Y-76200000D03*
D13*
X104140000Y-78740000D03*
X104140000Y-81280000D03*
X104140000Y-83820000D03*
X104140000Y-86360000D03*
X104140000Y-88900000D03*
X104140000Y-91440000D03*
X104140000Y-93980000D03*
X104140000Y-96520000D03*
X104140000Y-99060000D03*
X104140000Y-101600000D03*
X104140000Y-104140000D03*
X119380000Y-104140000D03*
X119380000Y-101600000D03*
X119380000Y-99060000D03*
X119380000Y-96520000D03*
X119380000Y-93980000D03*
X119380000Y-91440000D03*
X119380000Y-88900000D03*
X119380000Y-86360000D03*
X119380000Y-83820000D03*
X119380000Y-81280000D03*
X119380000Y-78740000D03*
X119380000Y-76200000D03*
D10*
X137160000Y-99075000D03*
D11*
X137160000Y-101615000D03*
X137160000Y-104155000D03*
D14*
X125730000Y-99060000D03*
D11*
X125730000Y-101600000D03*
X125730000Y-104140000D03*
D10*
X148590000Y-87630000D03*
D11*
X148590000Y-90170000D03*
X148590000Y-92710000D03*
D10*
X140970000Y-99060000D03*
D11*
X140970000Y-101600000D03*
X140970000Y-104140000D03*
D10*
X144780000Y-99075000D03*
D11*
X144780000Y-101615000D03*
X144780000Y-104155000D03*
D10*
X133350000Y-99075000D03*
D11*
X133350000Y-101615000D03*
X133350000Y-104155000D03*
D15*
X135890000Y-80010000D03*
D16*
X133350000Y-77470000D03*
X133350000Y-80010000D03*
X130810000Y-77470000D03*
X128270000Y-80010000D03*
X130810000Y-80010000D03*
X128270000Y-82550000D03*
X130810000Y-82550000D03*
X128270000Y-85090000D03*
X130810000Y-85090000D03*
X128270000Y-87630000D03*
X130810000Y-87630000D03*
X128270000Y-90170000D03*
X130810000Y-92710000D03*
X130810000Y-90170000D03*
X133350000Y-92710000D03*
X133350000Y-90170000D03*
X135890000Y-92710000D03*
X135890000Y-90170000D03*
X138430000Y-92710000D03*
X140970000Y-90170000D03*
X138430000Y-90170000D03*
X140970000Y-87630000D03*
X138430000Y-87630000D03*
X140970000Y-85090000D03*
X138430000Y-85090000D03*
X140970000Y-82550000D03*
X138430000Y-82550000D03*
X140970000Y-80010000D03*
X138430000Y-77470000D03*
X138430000Y-80010000D03*
X135890000Y-77470000D03*
D10*
X129540000Y-99075000D03*
D11*
X129540000Y-101615000D03*
X129540000Y-104155000D03*
D15*
X101600000Y-76200000D03*
D17*
X101600000Y-78740000D03*
X101600000Y-81280000D03*
X101600000Y-83820000D03*
X101600000Y-86360000D03*
X101600000Y-88900000D03*
X101600000Y-91440000D03*
X101600000Y-93980000D03*
X101600000Y-96520000D03*
X101600000Y-99060000D03*
X101600000Y-101600000D03*
X101600000Y-104140000D03*
D16*
X116840000Y-76200000D03*
D17*
X116840000Y-78740000D03*
X116840000Y-81280000D03*
X116840000Y-83820000D03*
X116840000Y-86360000D03*
X116840000Y-88900000D03*
X116840000Y-91440000D03*
X116840000Y-93980000D03*
X116840000Y-96520000D03*
X116840000Y-99060000D03*
X116840000Y-101600000D03*
X116840000Y-104140000D03*
D18*
X132715000Y-87630000D03*
X114300000Y-104140000D03*
D19*
X143163927Y-84181073D02*
X148590000Y-78755000D01*
X140970000Y-85090000D02*
G75*
G03*
X143163941Y-84181087I-400J3103300D01*
G01*
D20*
X133350000Y-99075000D02*
X137160000Y-99075000D01*
X148590000Y-76215000D02*
X149116051Y-76741051D01*
X140970000Y-99060000D02*
X137175000Y-99060000D01*
X147591901Y-76215000D02*
X148590000Y-76215000D01*
X121702102Y-74930000D02*
X129757945Y-74930000D01*
X119380000Y-76200000D02*
X119906051Y-75673949D01*
X149860000Y-89952102D02*
X149860000Y-96752898D01*
X149116051Y-98548949D02*
X148590000Y-99075000D01*
X149116051Y-87103949D02*
X148590000Y-87630000D01*
X148590000Y-99075000D02*
X144780000Y-99075000D01*
X144780000Y-99075000D02*
X140985000Y-99075000D01*
X138430000Y-80010000D02*
X135890000Y-77470000D01*
X140985000Y-99075000D02*
X140970000Y-99060000D01*
X149860000Y-78537102D02*
X149860000Y-85307898D01*
X148590000Y-87630000D02*
X149116051Y-88156051D01*
X137175000Y-99060000D02*
X137160000Y-99075000D01*
X149860000Y-96752898D02*
G75*
G02*
X149116052Y-98548950I-2540000J-2D01*
G01*
X149860000Y-85307898D02*
G75*
G02*
X149116052Y-87103950I-2540000J-2D01*
G01*
X138430000Y-80010000D02*
G75*
G02*
X147591901Y-76215017I9161900J-9161900D01*
G01*
X135890000Y-77470000D02*
G75*
G03*
X129757945Y-74929972I-6132100J-6132000D01*
G01*
X119906051Y-75673949D02*
G75*
G02*
X121702102Y-74930002I1796049J-1796051D01*
G01*
X149860000Y-78537102D02*
G75*
G03*
X149116052Y-76741050I-2540000J2D01*
G01*
X149116051Y-88156051D02*
G75*
G02*
X149859998Y-89952102I-1796051J-1796049D01*
G01*
X133350000Y-104155000D02*
X137160000Y-104155000D01*
X137160000Y-104155000D02*
X140955000Y-104155000D01*
X148575000Y-104140000D02*
X148590000Y-104155000D01*
X129540000Y-104155000D02*
X133350000Y-104155000D01*
X140955000Y-104155000D02*
X140970000Y-104140000D01*
X140970000Y-104140000D02*
X148575000Y-104140000D01*
D19*
X106988154Y-87630000D02*
X122137852Y-87630000D01*
X104140000Y-86360000D02*
X104294077Y-86514077D01*
X104294077Y-86514077D02*
G75*
G03*
X106988154Y-87630033I2694123J2694077D01*
G01*
X122137852Y-87630000D02*
G75*
G03*
X128270021Y-85090021I48J8672200D01*
G01*
X104140000Y-96520000D02*
X104294077Y-96674077D01*
X124088038Y-94351962D02*
X128270000Y-90170000D01*
X106988154Y-97790000D02*
X121920000Y-97790000D01*
X106988154Y-97790000D02*
G75*
G02*
X104294100Y-96674054I46J3810000D01*
G01*
X123190000Y-96520000D02*
G75*
G02*
X121920000Y-97790000I-1270000J0D01*
G01*
X123190000Y-96520000D02*
G75*
G02*
X124088028Y-94351952I3066100J0D01*
G01*
X123933949Y-91966051D02*
X128270000Y-87630000D01*
X104140000Y-91440000D02*
X104294077Y-91594077D01*
X106988154Y-92710000D02*
X122137898Y-92710000D01*
X122137898Y-92710000D02*
G75*
G03*
X123933950Y-91966052I2J2540000D01*
G01*
X104294077Y-91594077D02*
G75*
G03*
X106988154Y-92710033I2694123J2694077D01*
G01*
X106988154Y-82550000D02*
X128270000Y-82550000D01*
X104140000Y-81280000D02*
X104294077Y-81434077D01*
X106988154Y-82550000D02*
G75*
G02*
X104294100Y-81434054I46J3810000D01*
G01*
X130250352Y-80569648D02*
X130810000Y-80010000D01*
X104140000Y-78740000D02*
X104294077Y-78894077D01*
X106988154Y-80010000D02*
X125469368Y-80010000D01*
X106988154Y-80010000D02*
G75*
G02*
X104294100Y-78894054I46J3810000D01*
G01*
X128535396Y-81280000D02*
G75*
G02*
X126998335Y-80643311I4J2173700D01*
G01*
X125469368Y-80010000D02*
G75*
G02*
X126998329Y-80643317I32J-2162200D01*
G01*
X128535396Y-81280000D02*
G75*
G03*
X130250348Y-80569644I4J2425300D01*
G01*
X124460000Y-99877476D02*
X124460000Y-99060002D01*
X102870000Y-101325288D02*
X102870000Y-101600000D01*
X104140000Y-99060000D02*
X103573775Y-99626225D01*
X104140000Y-102870000D02*
X121467476Y-102870000D01*
X121467476Y-102870000D02*
G75*
G03*
X124460000Y-99877476I24J2992500D01*
G01*
X103573775Y-99626225D02*
G75*
G03*
X102869980Y-101325288I1699025J-1699075D01*
G01*
X104140000Y-102870000D02*
G75*
G02*
X102870000Y-101600000I0J1270000D01*
G01*
X124460000Y-99060002D02*
G75*
G02*
X130810000Y-92710000I6350000J2D01*
G01*
X123298949Y-94506051D02*
X126462933Y-91342067D01*
X106988154Y-95250000D02*
X121502898Y-95250000D01*
X104140000Y-93980000D02*
X104294077Y-94134077D01*
X130613057Y-87826943D02*
X130810000Y-87630000D01*
X121502898Y-95250000D02*
G75*
G03*
X123298950Y-94506052I2J2540000D01*
G01*
X127361019Y-89173981D02*
G75*
G03*
X126999971Y-90045560I871581J-871619D01*
G01*
X128022466Y-88900000D02*
G75*
G03*
X127361041Y-89174003I34J-935400D01*
G01*
X127000000Y-90045560D02*
G75*
G02*
X126462955Y-91342089I-1833700J60D01*
G01*
X104294077Y-94134077D02*
G75*
G03*
X106988154Y-95250033I2694123J2694077D01*
G01*
X128022466Y-88900000D02*
G75*
G03*
X130613084Y-87826970I34J3663700D01*
G01*
X104140000Y-88900000D02*
X104294077Y-89054077D01*
X130120014Y-85779986D02*
X130810000Y-85090000D01*
X106988154Y-90170000D02*
X121418085Y-90170000D01*
X125526946Y-88468054D02*
X126867956Y-87127044D01*
X126867956Y-87127044D02*
G75*
G02*
X128719766Y-86359989I1851844J-1851856D01*
G01*
X128719766Y-86360000D02*
G75*
G03*
X130119998Y-85779970I-66J1980300D01*
G01*
X121418085Y-90170000D02*
G75*
G03*
X125526952Y-88468060I15J5810800D01*
G01*
X106988154Y-90170000D02*
G75*
G02*
X104294100Y-89054054I46J3810000D01*
G01*
X123475961Y-77470000D02*
X121899098Y-77470000D01*
X119766755Y-78353245D02*
X119380000Y-78740000D01*
X137903983Y-81280000D02*
X133350001Y-81280000D01*
X130810000Y-78740000D02*
X126542018Y-78740000D01*
X126542018Y-78740000D02*
G75*
G02*
X125155809Y-78165833I-18J1960400D01*
G01*
X130810000Y-78740000D02*
G75*
G02*
X132080000Y-80010000I0J-1270000D01*
G01*
X121899098Y-77470000D02*
G75*
G03*
X119766754Y-78353244I2J-3015600D01*
G01*
X125155821Y-78165821D02*
G75*
G03*
X123475961Y-77470033I-1679821J-1679879D01*
G01*
X133350001Y-81280000D02*
G75*
G02*
X132080000Y-80010000I-1J1270000D01*
G01*
X140970000Y-82550000D02*
G75*
G03*
X137903983Y-81280021I-3066000J-3066000D01*
G01*
X104140000Y-83820000D02*
X104294077Y-83974077D01*
X106988154Y-85090000D02*
X125346034Y-85090000D01*
X128412052Y-83820000D02*
X128685455Y-83820000D01*
X130144254Y-83215746D02*
X130810000Y-82550000D01*
X130144254Y-83215746D02*
G75*
G02*
X128685455Y-83819984I-1458754J1458746D01*
G01*
X106988154Y-85090000D02*
G75*
G02*
X104294100Y-83974054I46J3810000D01*
G01*
X127085541Y-84369459D02*
G75*
G02*
X128412052Y-83819975I1326559J-1326541D01*
G01*
X125346034Y-85090000D02*
G75*
G03*
X127085524Y-84369442I-34J2460000D01*
G01*
X104140000Y-101600000D02*
X104294077Y-101445923D01*
X129911968Y-91703032D02*
X130360958Y-91254042D01*
X125637854Y-94072146D02*
X126659955Y-93050045D01*
X106988154Y-100330000D02*
X121943845Y-100330000D01*
X123825000Y-98448844D02*
G75*
G02*
X125637867Y-94072159I6189500J44D01*
G01*
X129911968Y-91703032D02*
G75*
G02*
X129013949Y-92074964I-897968J898032D01*
G01*
X121943845Y-100330000D02*
G75*
G03*
X123825000Y-98448844I-45J1881200D01*
G01*
X126659955Y-93050045D02*
G75*
G02*
X129013949Y-92075012I2353945J-2353955D01*
G01*
X130810000Y-90170000D02*
G75*
G02*
X130360973Y-91254057I-1533100J0D01*
G01*
X104294077Y-101445923D02*
G75*
G02*
X106988154Y-100329967I2694123J-2694077D01*
G01*
X132080000Y-92710000D02*
X132080000Y-89163115D01*
X132715000Y-87630000D02*
G75*
G03*
X132079998Y-89163115I1533200J-1533100D01*
G01*
X130810000Y-93980000D02*
G75*
G03*
X132080000Y-92710000I0J1270000D01*
G01*
X130810000Y-93980000D02*
G75*
G03*
X125730000Y-99060000I0J-5080000D01*
G01*
X117366068Y-105410000D02*
X122722198Y-105410000D01*
X124392190Y-102937810D02*
X125730000Y-101600000D01*
X123825000Y-104307234D02*
G75*
G02*
X122722198Y-105410000I-1102800J34D01*
G01*
X124392190Y-102937810D02*
G75*
G03*
X123825017Y-104307234I1369310J-1369290D01*
G01*
X114300000Y-104140000D02*
G75*
G03*
X117366068Y-105410020I3066100J3066100D01*
G01*
X134202895Y-94615000D02*
X134968170Y-94615000D01*
X125730000Y-104140000D02*
X126256051Y-103613949D01*
X137855208Y-90744792D02*
X138430000Y-90170000D01*
X127000000Y-101817898D02*
G75*
G02*
X134202895Y-94615000I7202900J-2D01*
G01*
X137855208Y-90744792D02*
G75*
G03*
X137159984Y-92423170I1678392J-1678408D01*
G01*
X126256051Y-103613949D02*
G75*
G03*
X126999998Y-101817898I-1796051J1796049D01*
G01*
X134968170Y-94615000D02*
G75*
G03*
X137160000Y-92423170I30J2191800D01*
G01*
G04 #@! TA.AperFunction,Conductor*
G36*
X148912430Y-80010388D02*
G01*
X149145954Y-80028767D01*
X149165481Y-80031860D01*
X149210469Y-80042660D01*
X149254914Y-80053330D01*
X149316483Y-80088682D01*
X149349166Y-80151708D01*
X149351500Y-80175849D01*
X149351500Y-85304358D01*
X149351302Y-85311423D01*
X149339123Y-85528288D01*
X149337541Y-85542329D01*
X149301751Y-85752973D01*
X149298607Y-85766748D01*
X149239457Y-85972063D01*
X149234790Y-85985400D01*
X149153026Y-86182797D01*
X149146895Y-86195528D01*
X149043545Y-86382525D01*
X149036028Y-86394488D01*
X148960368Y-86501121D01*
X148904635Y-86545104D01*
X148834455Y-86552064D01*
X148777562Y-86541429D01*
X148692347Y-86525500D01*
X148487653Y-86525500D01*
X148286444Y-86563112D01*
X148286439Y-86563113D01*
X148095577Y-86637054D01*
X148095566Y-86637059D01*
X147921536Y-86744814D01*
X147770266Y-86882715D01*
X147646913Y-87046063D01*
X147555671Y-87229301D01*
X147499654Y-87426180D01*
X147480768Y-87629995D01*
X147480768Y-87630004D01*
X147499654Y-87833819D01*
X147547320Y-88001346D01*
X147555672Y-88030701D01*
X147646912Y-88213935D01*
X147646913Y-88213936D01*
X147770266Y-88377284D01*
X147921536Y-88515185D01*
X148095566Y-88622940D01*
X148095568Y-88622940D01*
X148095573Y-88622944D01*
X148286444Y-88696888D01*
X148487653Y-88734500D01*
X148487655Y-88734500D01*
X148692344Y-88734500D01*
X148692347Y-88734500D01*
X148834456Y-88707935D01*
X148905088Y-88715080D01*
X148960366Y-88758878D01*
X149036026Y-88865512D01*
X149043543Y-88877475D01*
X149075152Y-88934667D01*
X149090597Y-89003963D01*
X149066126Y-89070609D01*
X149009508Y-89113446D01*
X148938719Y-89118872D01*
X148919360Y-89113108D01*
X148909811Y-89109409D01*
X148893557Y-89103112D01*
X148826486Y-89090574D01*
X148692347Y-89065500D01*
X148487653Y-89065500D01*
X148286444Y-89103112D01*
X148286439Y-89103113D01*
X148095577Y-89177054D01*
X148095566Y-89177059D01*
X147921536Y-89284814D01*
X147770266Y-89422715D01*
X147646913Y-89586063D01*
X147555671Y-89769301D01*
X147499654Y-89966180D01*
X147480768Y-90169995D01*
X147480768Y-90170004D01*
X147499654Y-90373819D01*
X147544185Y-90530328D01*
X147555672Y-90570701D01*
X147646912Y-90753935D01*
X147646913Y-90753936D01*
X147770266Y-90917284D01*
X147921536Y-91055185D01*
X148095566Y-91162940D01*
X148095568Y-91162940D01*
X148095573Y-91162944D01*
X148286444Y-91236888D01*
X148487653Y-91274500D01*
X148487655Y-91274500D01*
X148692345Y-91274500D01*
X148692347Y-91274500D01*
X148893556Y-91236888D01*
X149084427Y-91162944D01*
X149159170Y-91116664D01*
X149227616Y-91097810D01*
X149295391Y-91118953D01*
X149340976Y-91173382D01*
X149351500Y-91223792D01*
X149351500Y-96749358D01*
X149351302Y-96756423D01*
X149339123Y-96973288D01*
X149337541Y-96987329D01*
X149301751Y-97197973D01*
X149298607Y-97211748D01*
X149239457Y-97417063D01*
X149234790Y-97430400D01*
X149153026Y-97627797D01*
X149146895Y-97640528D01*
X149043545Y-97827525D01*
X149036028Y-97839488D01*
X148960368Y-97946121D01*
X148904635Y-97990104D01*
X148834455Y-97997064D01*
X148777562Y-97986429D01*
X148692347Y-97970500D01*
X148487653Y-97970500D01*
X148286444Y-98008112D01*
X148286439Y-98008113D01*
X148095577Y-98082054D01*
X148095566Y-98082059D01*
X147921536Y-98189814D01*
X147770266Y-98327715D01*
X147646913Y-98491062D01*
X147646909Y-98491068D01*
X147644123Y-98496665D01*
X147595853Y-98548728D01*
X147531334Y-98566500D01*
X145838666Y-98566500D01*
X145770545Y-98546498D01*
X145725877Y-98496665D01*
X145723090Y-98491068D01*
X145723086Y-98491062D01*
X145599733Y-98327715D01*
X145448463Y-98189814D01*
X145274433Y-98082059D01*
X145274428Y-98082057D01*
X145274427Y-98082056D01*
X145274422Y-98082054D01*
X145083559Y-98008113D01*
X145083560Y-98008113D01*
X145083557Y-98008112D01*
X145083556Y-98008112D01*
X144882347Y-97970500D01*
X144677653Y-97970500D01*
X144476444Y-98008112D01*
X144476439Y-98008113D01*
X144285577Y-98082054D01*
X144285566Y-98082059D01*
X144111536Y-98189814D01*
X143960266Y-98327715D01*
X143836913Y-98491062D01*
X143836909Y-98491068D01*
X143834123Y-98496665D01*
X143785853Y-98548728D01*
X143721334Y-98566500D01*
X142036135Y-98566500D01*
X141968014Y-98546498D01*
X141923345Y-98496664D01*
X141913087Y-98476063D01*
X141913086Y-98476062D01*
X141789733Y-98312715D01*
X141638463Y-98174814D01*
X141464433Y-98067059D01*
X141464428Y-98067057D01*
X141464427Y-98067056D01*
X141464422Y-98067054D01*
X141273559Y-97993113D01*
X141273560Y-97993113D01*
X141273557Y-97993112D01*
X141273556Y-97993112D01*
X141072347Y-97955500D01*
X140867653Y-97955500D01*
X140682536Y-97990104D01*
X140666439Y-97993113D01*
X140475577Y-98067054D01*
X140475566Y-98067059D01*
X140301536Y-98174814D01*
X140150266Y-98312715D01*
X140026913Y-98476062D01*
X140026909Y-98476068D01*
X140024123Y-98481665D01*
X139975853Y-98533728D01*
X139911334Y-98551500D01*
X138210689Y-98551500D01*
X138142568Y-98531498D01*
X138107048Y-98495374D01*
X138106599Y-98495714D01*
X138104007Y-98492281D01*
X138103558Y-98491825D01*
X138103089Y-98491068D01*
X138103088Y-98491065D01*
X138063700Y-98438907D01*
X137979733Y-98327715D01*
X137828463Y-98189814D01*
X137654433Y-98082059D01*
X137654428Y-98082057D01*
X137654427Y-98082056D01*
X137654422Y-98082054D01*
X137463559Y-98008113D01*
X137463560Y-98008113D01*
X137463557Y-98008112D01*
X137463556Y-98008112D01*
X137262347Y-97970500D01*
X137057653Y-97970500D01*
X136856444Y-98008112D01*
X136856439Y-98008113D01*
X136665577Y-98082054D01*
X136665566Y-98082059D01*
X136491536Y-98189814D01*
X136340266Y-98327715D01*
X136216913Y-98491062D01*
X136216909Y-98491068D01*
X136214123Y-98496665D01*
X136165853Y-98548728D01*
X136101334Y-98566500D01*
X134408666Y-98566500D01*
X134340545Y-98546498D01*
X134295877Y-98496665D01*
X134293090Y-98491068D01*
X134293086Y-98491062D01*
X134169733Y-98327715D01*
X134018463Y-98189814D01*
X133844433Y-98082059D01*
X133844428Y-98082057D01*
X133844427Y-98082056D01*
X133844422Y-98082054D01*
X133653559Y-98008113D01*
X133653560Y-98008113D01*
X133653557Y-98008112D01*
X133653556Y-98008112D01*
X133452347Y-97970500D01*
X133247653Y-97970500D01*
X133046444Y-98008112D01*
X133046439Y-98008113D01*
X132855577Y-98082054D01*
X132855566Y-98082059D01*
X132681536Y-98189814D01*
X132530266Y-98327715D01*
X132406913Y-98491063D01*
X132315671Y-98674301D01*
X132259654Y-98871180D01*
X132240768Y-99074995D01*
X132240768Y-99075004D01*
X132259654Y-99278819D01*
X132305040Y-99438335D01*
X132315672Y-99475701D01*
X132406912Y-99658935D01*
X132406913Y-99658936D01*
X132530266Y-99822284D01*
X132681536Y-99960185D01*
X132855566Y-100067940D01*
X132855568Y-100067940D01*
X132855573Y-100067944D01*
X133046444Y-100141888D01*
X133247653Y-100179500D01*
X133247655Y-100179500D01*
X133452345Y-100179500D01*
X133452347Y-100179500D01*
X133653556Y-100141888D01*
X133844427Y-100067944D01*
X134018462Y-99960186D01*
X134169732Y-99822285D01*
X134181060Y-99807285D01*
X134293086Y-99658937D01*
X134293087Y-99658936D01*
X134293088Y-99658935D01*
X134293090Y-99658931D01*
X134295877Y-99653335D01*
X134344147Y-99601272D01*
X134408666Y-99583500D01*
X136101334Y-99583500D01*
X136169455Y-99603502D01*
X136214123Y-99653335D01*
X136216909Y-99658931D01*
X136216913Y-99658937D01*
X136340266Y-99822284D01*
X136491536Y-99960185D01*
X136665566Y-100067940D01*
X136665568Y-100067940D01*
X136665573Y-100067944D01*
X136856444Y-100141888D01*
X137057653Y-100179500D01*
X137057655Y-100179500D01*
X137262345Y-100179500D01*
X137262347Y-100179500D01*
X137463556Y-100141888D01*
X137654427Y-100067944D01*
X137828462Y-99960186D01*
X137979732Y-99822285D01*
X137991060Y-99807285D01*
X138103086Y-99658937D01*
X138103087Y-99658936D01*
X138103086Y-99658936D01*
X138103088Y-99658935D01*
X138113345Y-99638335D01*
X138161614Y-99586273D01*
X138226135Y-99568500D01*
X139911334Y-99568500D01*
X139979455Y-99588502D01*
X140024123Y-99638335D01*
X140026909Y-99643931D01*
X140026913Y-99643937D01*
X140150266Y-99807284D01*
X140301536Y-99945185D01*
X140475566Y-100052940D01*
X140475568Y-100052940D01*
X140475573Y-100052944D01*
X140666444Y-100126888D01*
X140867653Y-100164500D01*
X140867655Y-100164500D01*
X141072345Y-100164500D01*
X141072347Y-100164500D01*
X141273556Y-100126888D01*
X141464427Y-100052944D01*
X141638462Y-99945186D01*
X141789732Y-99807285D01*
X141913088Y-99643935D01*
X141913095Y-99643919D01*
X141913558Y-99643175D01*
X141913880Y-99642885D01*
X141916599Y-99639286D01*
X141917303Y-99639817D01*
X141966422Y-99595785D01*
X142020689Y-99583500D01*
X143721334Y-99583500D01*
X143789455Y-99603502D01*
X143834123Y-99653335D01*
X143836909Y-99658931D01*
X143836913Y-99658937D01*
X143960266Y-99822284D01*
X144111536Y-99960185D01*
X144285566Y-100067940D01*
X144285568Y-100067940D01*
X144285573Y-100067944D01*
X144476444Y-100141888D01*
X144677653Y-100179500D01*
X144677655Y-100179500D01*
X144882345Y-100179500D01*
X144882347Y-100179500D01*
X145083556Y-100141888D01*
X145274427Y-100067944D01*
X145448462Y-99960186D01*
X145599732Y-99822285D01*
X145611060Y-99807285D01*
X145723086Y-99658937D01*
X145723087Y-99658936D01*
X145723088Y-99658935D01*
X145723090Y-99658931D01*
X145725877Y-99653335D01*
X145774147Y-99601272D01*
X145838666Y-99583500D01*
X147531334Y-99583500D01*
X147599455Y-99603502D01*
X147644123Y-99653335D01*
X147646909Y-99658931D01*
X147646913Y-99658937D01*
X147770266Y-99822284D01*
X147921536Y-99960185D01*
X148095566Y-100067940D01*
X148095568Y-100067940D01*
X148095573Y-100067944D01*
X148286444Y-100141888D01*
X148487653Y-100179500D01*
X148487655Y-100179500D01*
X148692345Y-100179500D01*
X148692347Y-100179500D01*
X148893556Y-100141888D01*
X149084427Y-100067944D01*
X149258462Y-99960186D01*
X149409732Y-99822285D01*
X149421060Y-99807285D01*
X149430006Y-99795436D01*
X149533088Y-99658935D01*
X149624328Y-99475701D01*
X149680345Y-99278821D01*
X149699232Y-99075000D01*
X149697842Y-99060002D01*
X149680345Y-98871184D01*
X149680345Y-98871180D01*
X149658464Y-98794275D01*
X149659060Y-98723281D01*
X149682252Y-98679864D01*
X149771532Y-98571078D01*
X149882735Y-98404651D01*
X149937212Y-98359123D01*
X150007655Y-98350275D01*
X150071699Y-98380916D01*
X150109010Y-98441318D01*
X150113500Y-98474653D01*
X150113500Y-105400082D01*
X150111948Y-105419795D01*
X150104213Y-105468627D01*
X150092032Y-105506116D01*
X150074144Y-105541224D01*
X150050972Y-105573117D01*
X150023117Y-105600972D01*
X149991224Y-105624144D01*
X149956116Y-105642032D01*
X149918627Y-105654213D01*
X149869796Y-105661948D01*
X149850083Y-105663500D01*
X128879927Y-105663500D01*
X128814743Y-105645329D01*
X128779699Y-105624144D01*
X128738629Y-105599316D01*
X128726124Y-105590684D01*
X128496658Y-105410910D01*
X128485277Y-105400826D01*
X128279173Y-105194722D01*
X128269090Y-105183342D01*
X128089312Y-104953872D01*
X128080685Y-104941373D01*
X127929879Y-104691910D01*
X127922813Y-104678445D01*
X127803188Y-104412649D01*
X127797795Y-104398432D01*
X127711070Y-104120121D01*
X127707435Y-104105374D01*
X127654890Y-103818647D01*
X127653059Y-103803566D01*
X127635230Y-103508801D01*
X127635000Y-103501194D01*
X127635000Y-101614995D01*
X128430768Y-101614995D01*
X128430768Y-101615004D01*
X128449654Y-101818819D01*
X128449655Y-101818821D01*
X128505672Y-102015701D01*
X128596912Y-102198935D01*
X128596913Y-102198936D01*
X128720266Y-102362284D01*
X128871536Y-102500185D01*
X129045566Y-102607940D01*
X129045568Y-102607940D01*
X129045573Y-102607944D01*
X129236444Y-102681888D01*
X129437653Y-102719500D01*
X129437655Y-102719500D01*
X129642345Y-102719500D01*
X129642347Y-102719500D01*
X129843556Y-102681888D01*
X130034427Y-102607944D01*
X130208462Y-102500186D01*
X130359732Y-102362285D01*
X130371060Y-102347285D01*
X130408119Y-102298210D01*
X130483088Y-102198935D01*
X130574328Y-102015701D01*
X130630345Y-101818821D01*
X130649232Y-101615000D01*
X130649232Y-101614995D01*
X132240768Y-101614995D01*
X132240768Y-101615004D01*
X132259654Y-101818819D01*
X132259655Y-101818821D01*
X132315672Y-102015701D01*
X132406912Y-102198935D01*
X132406913Y-102198936D01*
X132530266Y-102362284D01*
X132681536Y-102500185D01*
X132855566Y-102607940D01*
X132855568Y-102607940D01*
X132855573Y-102607944D01*
X133046444Y-102681888D01*
X133247653Y-102719500D01*
X133247655Y-102719500D01*
X133452345Y-102719500D01*
X133452347Y-102719500D01*
X133653556Y-102681888D01*
X133844427Y-102607944D01*
X134018462Y-102500186D01*
X134169732Y-102362285D01*
X134181060Y-102347285D01*
X134218119Y-102298210D01*
X134293088Y-102198935D01*
X134384328Y-102015701D01*
X134440345Y-101818821D01*
X134459232Y-101615000D01*
X134459232Y-101614995D01*
X136050768Y-101614995D01*
X136050768Y-101615004D01*
X136069654Y-101818819D01*
X136069655Y-101818821D01*
X136125672Y-102015701D01*
X136216912Y-102198935D01*
X136216913Y-102198936D01*
X136340266Y-102362284D01*
X136491536Y-102500185D01*
X136665566Y-102607940D01*
X136665568Y-102607940D01*
X136665573Y-102607944D01*
X136856444Y-102681888D01*
X137057653Y-102719500D01*
X137057655Y-102719500D01*
X137262345Y-102719500D01*
X137262347Y-102719500D01*
X137463556Y-102681888D01*
X137654427Y-102607944D01*
X137828462Y-102500186D01*
X137979732Y-102362285D01*
X137991060Y-102347285D01*
X138028119Y-102298210D01*
X138103088Y-102198935D01*
X138194328Y-102015701D01*
X138250345Y-101818821D01*
X138269232Y-101615000D01*
X138267842Y-101600004D01*
X138267841Y-101599995D01*
X139860768Y-101599995D01*
X139860768Y-101600004D01*
X139879654Y-101803819D01*
X139924496Y-101961422D01*
X139935672Y-102000701D01*
X140026912Y-102183935D01*
X140038240Y-102198936D01*
X140150266Y-102347284D01*
X140301536Y-102485185D01*
X140475566Y-102592940D01*
X140475568Y-102592940D01*
X140475573Y-102592944D01*
X140666444Y-102666888D01*
X140867653Y-102704500D01*
X140867655Y-102704500D01*
X141072345Y-102704500D01*
X141072347Y-102704500D01*
X141273556Y-102666888D01*
X141464427Y-102592944D01*
X141638462Y-102485186D01*
X141789732Y-102347285D01*
X141913088Y-102183935D01*
X142004328Y-102000701D01*
X142060345Y-101803821D01*
X142077842Y-101615000D01*
X142077842Y-101614995D01*
X143670768Y-101614995D01*
X143670768Y-101615004D01*
X143689654Y-101818819D01*
X143689655Y-101818821D01*
X143745672Y-102015701D01*
X143836912Y-102198935D01*
X143836913Y-102198936D01*
X143960266Y-102362284D01*
X144111536Y-102500185D01*
X144285566Y-102607940D01*
X144285568Y-102607940D01*
X144285573Y-102607944D01*
X144476444Y-102681888D01*
X144677653Y-102719500D01*
X144677655Y-102719500D01*
X144882345Y-102719500D01*
X144882347Y-102719500D01*
X145083556Y-102681888D01*
X145274427Y-102607944D01*
X145448462Y-102500186D01*
X145599732Y-102362285D01*
X145611060Y-102347285D01*
X145648119Y-102298210D01*
X145723088Y-102198935D01*
X145814328Y-102015701D01*
X145870345Y-101818821D01*
X145889232Y-101615000D01*
X145889232Y-101614995D01*
X147480768Y-101614995D01*
X147480768Y-101615004D01*
X147499654Y-101818819D01*
X147499655Y-101818821D01*
X147555672Y-102015701D01*
X147646912Y-102198935D01*
X147646913Y-102198936D01*
X147770266Y-102362284D01*
X147921536Y-102500185D01*
X148095566Y-102607940D01*
X148095568Y-102607940D01*
X148095573Y-102607944D01*
X148286444Y-102681888D01*
X148487653Y-102719500D01*
X148487655Y-102719500D01*
X148692345Y-102719500D01*
X148692347Y-102719500D01*
X148893556Y-102681888D01*
X149084427Y-102607944D01*
X149258462Y-102500186D01*
X149409732Y-102362285D01*
X149421060Y-102347285D01*
X149458119Y-102298210D01*
X149533088Y-102198935D01*
X149624328Y-102015701D01*
X149680345Y-101818821D01*
X149699232Y-101615000D01*
X149697842Y-101600004D01*
X149680345Y-101411180D01*
X149676077Y-101396179D01*
X149624328Y-101214299D01*
X149533088Y-101031065D01*
X149492538Y-100977368D01*
X149409733Y-100867715D01*
X149258463Y-100729814D01*
X149084433Y-100622059D01*
X149084428Y-100622057D01*
X149084427Y-100622056D01*
X149084422Y-100622054D01*
X148893559Y-100548113D01*
X148893560Y-100548113D01*
X148893557Y-100548112D01*
X148893556Y-100548112D01*
X148692347Y-100510500D01*
X148487653Y-100510500D01*
X148286444Y-100548112D01*
X148286439Y-100548113D01*
X148095577Y-100622054D01*
X148095566Y-100622059D01*
X147921536Y-100729814D01*
X147770266Y-100867715D01*
X147646913Y-101031063D01*
X147555671Y-101214301D01*
X147499654Y-101411180D01*
X147480768Y-101614995D01*
X145889232Y-101614995D01*
X145887842Y-101600004D01*
X145870345Y-101411180D01*
X145866077Y-101396179D01*
X145814328Y-101214299D01*
X145723088Y-101031065D01*
X145682538Y-100977368D01*
X145599733Y-100867715D01*
X145448463Y-100729814D01*
X145274433Y-100622059D01*
X145274428Y-100622057D01*
X145274427Y-100622056D01*
X145274422Y-100622054D01*
X145083559Y-100548113D01*
X145083560Y-100548113D01*
X145083557Y-100548112D01*
X145083556Y-100548112D01*
X144882347Y-100510500D01*
X144677653Y-100510500D01*
X144476444Y-100548112D01*
X144476439Y-100548113D01*
X144285577Y-100622054D01*
X144285566Y-100622059D01*
X144111536Y-100729814D01*
X143960266Y-100867715D01*
X143836913Y-101031063D01*
X143745671Y-101214301D01*
X143689654Y-101411180D01*
X143670768Y-101614995D01*
X142077842Y-101614995D01*
X142079232Y-101600004D01*
X142079232Y-101599995D01*
X142060345Y-101396180D01*
X142008596Y-101214301D01*
X142004328Y-101199299D01*
X141913088Y-101016065D01*
X141872538Y-100962368D01*
X141789733Y-100852715D01*
X141638463Y-100714814D01*
X141464433Y-100607059D01*
X141464428Y-100607057D01*
X141464427Y-100607056D01*
X141312278Y-100548113D01*
X141273559Y-100533113D01*
X141273560Y-100533113D01*
X141273557Y-100533112D01*
X141273556Y-100533112D01*
X141072347Y-100495500D01*
X140867653Y-100495500D01*
X140691229Y-100528479D01*
X140666439Y-100533113D01*
X140475577Y-100607054D01*
X140475566Y-100607059D01*
X140301536Y-100714814D01*
X140150266Y-100852715D01*
X140026913Y-101016063D01*
X139935671Y-101199301D01*
X139879654Y-101396180D01*
X139860768Y-101599995D01*
X138267841Y-101599995D01*
X138250345Y-101411180D01*
X138246077Y-101396179D01*
X138194328Y-101214299D01*
X138103088Y-101031065D01*
X138062538Y-100977368D01*
X137979733Y-100867715D01*
X137828463Y-100729814D01*
X137654433Y-100622059D01*
X137654428Y-100622057D01*
X137654427Y-100622056D01*
X137654422Y-100622054D01*
X137463559Y-100548113D01*
X137463560Y-100548113D01*
X137463557Y-100548112D01*
X137463556Y-100548112D01*
X137262347Y-100510500D01*
X137057653Y-100510500D01*
X136856444Y-100548112D01*
X136856439Y-100548113D01*
X136665577Y-100622054D01*
X136665566Y-100622059D01*
X136491536Y-100729814D01*
X136340266Y-100867715D01*
X136216913Y-101031063D01*
X136125671Y-101214301D01*
X136069654Y-101411180D01*
X136050768Y-101614995D01*
X134459232Y-101614995D01*
X134457842Y-101600004D01*
X134440345Y-101411180D01*
X134436077Y-101396179D01*
X134384328Y-101214299D01*
X134293088Y-101031065D01*
X134252538Y-100977368D01*
X134169733Y-100867715D01*
X134018463Y-100729814D01*
X133844433Y-100622059D01*
X133844428Y-100622057D01*
X133844427Y-100622056D01*
X133844422Y-100622054D01*
X133653559Y-100548113D01*
X133653560Y-100548113D01*
X133653557Y-100548112D01*
X133653556Y-100548112D01*
X133452347Y-100510500D01*
X133247653Y-100510500D01*
X133046444Y-100548112D01*
X133046439Y-100548113D01*
X132855577Y-100622054D01*
X132855566Y-100622059D01*
X132681536Y-100729814D01*
X132530266Y-100867715D01*
X132406913Y-101031063D01*
X132315671Y-101214301D01*
X132259654Y-101411180D01*
X132240768Y-101614995D01*
X130649232Y-101614995D01*
X130647842Y-101600004D01*
X130630345Y-101411180D01*
X130626077Y-101396179D01*
X130574328Y-101214299D01*
X130483088Y-101031065D01*
X130442538Y-100977368D01*
X130359733Y-100867715D01*
X130208463Y-100729814D01*
X130034433Y-100622059D01*
X130034428Y-100622057D01*
X130034427Y-100622056D01*
X130034422Y-100622054D01*
X129843559Y-100548113D01*
X129843560Y-100548113D01*
X129843557Y-100548112D01*
X129843556Y-100548112D01*
X129642347Y-100510500D01*
X129437653Y-100510500D01*
X129236444Y-100548112D01*
X129236439Y-100548113D01*
X129045577Y-100622054D01*
X129045566Y-100622059D01*
X128871536Y-100729814D01*
X128720266Y-100867715D01*
X128596913Y-101031063D01*
X128505671Y-101214301D01*
X128449654Y-101411180D01*
X128430768Y-101614995D01*
X127635000Y-101614995D01*
X127635000Y-100001303D01*
X127638914Y-99970143D01*
X127656702Y-99900450D01*
X127659236Y-99891819D01*
X127682379Y-99822285D01*
X127810176Y-99438314D01*
X127813304Y-99429929D01*
X127960322Y-99074995D01*
X128430768Y-99074995D01*
X128430768Y-99075004D01*
X128449654Y-99278819D01*
X128495040Y-99438335D01*
X128505672Y-99475701D01*
X128596912Y-99658935D01*
X128596913Y-99658936D01*
X128720266Y-99822284D01*
X128871536Y-99960185D01*
X129045566Y-100067940D01*
X129045568Y-100067940D01*
X129045573Y-100067944D01*
X129236444Y-100141888D01*
X129437653Y-100179500D01*
X129437655Y-100179500D01*
X129642345Y-100179500D01*
X129642347Y-100179500D01*
X129843556Y-100141888D01*
X130034427Y-100067944D01*
X130208462Y-99960186D01*
X130359732Y-99822285D01*
X130371060Y-99807285D01*
X130380006Y-99795436D01*
X130483088Y-99658935D01*
X130574328Y-99475701D01*
X130630345Y-99278821D01*
X130649232Y-99075000D01*
X130647842Y-99060002D01*
X130630345Y-98871180D01*
X130608464Y-98794275D01*
X130574328Y-98674299D01*
X130483088Y-98491065D01*
X130442538Y-98437368D01*
X130359733Y-98327715D01*
X130208463Y-98189814D01*
X130034433Y-98082059D01*
X130034428Y-98082057D01*
X130034427Y-98082056D01*
X130034422Y-98082054D01*
X129843559Y-98008113D01*
X129843560Y-98008113D01*
X129843557Y-98008112D01*
X129843556Y-98008112D01*
X129642347Y-97970500D01*
X129437653Y-97970500D01*
X129236444Y-98008112D01*
X129236439Y-98008113D01*
X129045577Y-98082054D01*
X129045566Y-98082059D01*
X128871536Y-98189814D01*
X128720266Y-98327715D01*
X128596913Y-98491063D01*
X128505671Y-98674301D01*
X128449654Y-98871180D01*
X128430768Y-99074995D01*
X127960322Y-99074995D01*
X127996227Y-98988312D01*
X127999938Y-98980187D01*
X128213891Y-98552762D01*
X128218183Y-98544902D01*
X128462086Y-98133826D01*
X128466939Y-98126277D01*
X128497642Y-98082056D01*
X128739528Y-97733673D01*
X128744893Y-97726504D01*
X129044816Y-97354324D01*
X129050676Y-97347561D01*
X129376390Y-96997719D01*
X129382717Y-96991392D01*
X129732559Y-96665678D01*
X129739322Y-96659818D01*
X130111503Y-96359895D01*
X130118657Y-96354539D01*
X130511290Y-96081929D01*
X130518824Y-96077087D01*
X130929899Y-95833185D01*
X130937761Y-95828893D01*
X131365173Y-95614945D01*
X131373320Y-95611225D01*
X131814917Y-95428308D01*
X131823321Y-95425174D01*
X132276820Y-95274235D01*
X132285441Y-95271704D01*
X132748550Y-95153502D01*
X132757322Y-95151593D01*
X133227705Y-95066727D01*
X133236559Y-95065454D01*
X133711798Y-95014359D01*
X133720740Y-95013720D01*
X134200655Y-94996579D01*
X134205152Y-94996500D01*
X134257747Y-94996500D01*
X134968165Y-94996500D01*
X135112681Y-94996502D01*
X135399896Y-94964144D01*
X135399905Y-94964142D01*
X135681670Y-94899834D01*
X135681672Y-94899833D01*
X135681682Y-94899831D01*
X135954495Y-94804372D01*
X136214904Y-94678968D01*
X136459635Y-94525194D01*
X136685610Y-94344986D01*
X136889986Y-94140610D01*
X137070194Y-93914635D01*
X137223968Y-93669904D01*
X137349372Y-93409495D01*
X137396903Y-93273653D01*
X137438280Y-93215964D01*
X137504280Y-93189801D01*
X137573948Y-93203473D01*
X137620599Y-93245270D01*
X137623162Y-93249107D01*
X137623164Y-93249110D01*
X137743843Y-93396157D01*
X137890890Y-93516836D01*
X138058654Y-93606508D01*
X138240690Y-93661728D01*
X138240694Y-93661728D01*
X138240696Y-93661729D01*
X138429997Y-93680373D01*
X138430000Y-93680373D01*
X138430003Y-93680373D01*
X138619303Y-93661729D01*
X138619304Y-93661728D01*
X138619310Y-93661728D01*
X138801346Y-93606508D01*
X138969110Y-93516836D01*
X139116157Y-93396157D01*
X139236836Y-93249110D01*
X139326508Y-93081346D01*
X139381728Y-92899310D01*
X139383055Y-92885843D01*
X139400373Y-92710003D01*
X139400373Y-92709996D01*
X139381729Y-92520696D01*
X139381728Y-92520694D01*
X139381728Y-92520690D01*
X139326508Y-92338654D01*
X139236836Y-92170890D01*
X139116157Y-92023843D01*
X138969110Y-91903164D01*
X138801346Y-91813492D01*
X138619310Y-91758272D01*
X138619309Y-91758271D01*
X138619303Y-91758270D01*
X138430003Y-91739627D01*
X138429997Y-91739627D01*
X138240696Y-91758270D01*
X138058653Y-91813492D01*
X137890889Y-91903164D01*
X137840843Y-91944236D01*
X137775495Y-91971989D01*
X137705517Y-91960007D01*
X137653126Y-91912094D01*
X137634955Y-91843462D01*
X137639833Y-91811962D01*
X137651341Y-91772018D01*
X137656004Y-91758696D01*
X137656180Y-91758272D01*
X137736080Y-91565378D01*
X137742203Y-91552665D01*
X137843433Y-91369505D01*
X137850936Y-91357564D01*
X137972040Y-91186887D01*
X137980812Y-91175886D01*
X138020738Y-91131209D01*
X138081039Y-91093748D01*
X138151258Y-91094598D01*
X138240690Y-91121728D01*
X138240694Y-91121728D01*
X138240697Y-91121729D01*
X138429997Y-91140373D01*
X138430000Y-91140373D01*
X138430003Y-91140373D01*
X138619303Y-91121729D01*
X138619304Y-91121728D01*
X138619310Y-91121728D01*
X138801346Y-91066508D01*
X138969110Y-90976836D01*
X139116157Y-90856157D01*
X139236836Y-90709110D01*
X139326508Y-90541346D01*
X139381728Y-90359310D01*
X139400373Y-90170000D01*
X139400373Y-90169996D01*
X139999627Y-90169996D01*
X139999627Y-90170003D01*
X140018270Y-90359303D01*
X140018271Y-90359309D01*
X140018272Y-90359310D01*
X140073492Y-90541346D01*
X140163164Y-90709110D01*
X140283843Y-90856157D01*
X140430890Y-90976836D01*
X140598654Y-91066508D01*
X140780690Y-91121728D01*
X140780694Y-91121728D01*
X140780696Y-91121729D01*
X140969997Y-91140373D01*
X140970000Y-91140373D01*
X140970003Y-91140373D01*
X141159303Y-91121729D01*
X141159304Y-91121728D01*
X141159310Y-91121728D01*
X141341346Y-91066508D01*
X141509110Y-90976836D01*
X141656157Y-90856157D01*
X141776836Y-90709110D01*
X141866508Y-90541346D01*
X141921728Y-90359310D01*
X141940373Y-90170000D01*
X141928116Y-90045548D01*
X141921729Y-89980696D01*
X141921728Y-89980694D01*
X141921728Y-89980690D01*
X141866508Y-89798654D01*
X141776836Y-89630890D01*
X141656157Y-89483843D01*
X141509110Y-89363164D01*
X141341346Y-89273492D01*
X141159310Y-89218272D01*
X141159309Y-89218271D01*
X141159303Y-89218270D01*
X140970003Y-89199627D01*
X140969997Y-89199627D01*
X140780696Y-89218270D01*
X140598653Y-89273492D01*
X140430889Y-89363164D01*
X140283843Y-89483843D01*
X140163164Y-89630889D01*
X140073492Y-89798653D01*
X140018270Y-89980696D01*
X139999627Y-90169996D01*
X139400373Y-90169996D01*
X139388116Y-90045548D01*
X139381729Y-89980696D01*
X139381728Y-89980694D01*
X139381728Y-89980690D01*
X139326508Y-89798654D01*
X139236836Y-89630890D01*
X139116157Y-89483843D01*
X138969110Y-89363164D01*
X138801346Y-89273492D01*
X138619310Y-89218272D01*
X138619309Y-89218271D01*
X138619303Y-89218270D01*
X138430003Y-89199627D01*
X138429997Y-89199627D01*
X138240696Y-89218270D01*
X138058653Y-89273492D01*
X137890889Y-89363164D01*
X137743843Y-89483843D01*
X137623164Y-89630889D01*
X137533492Y-89798653D01*
X137478270Y-89980696D01*
X137459627Y-90169996D01*
X137459627Y-90170003D01*
X137478270Y-90359303D01*
X137508649Y-90459451D01*
X137509282Y-90530445D01*
X137485473Y-90575960D01*
X137318031Y-90779987D01*
X137318026Y-90779993D01*
X137167628Y-91005075D01*
X137040020Y-91243810D01*
X136936435Y-91493880D01*
X136936432Y-91493890D01*
X136857852Y-91752922D01*
X136857851Y-91752925D01*
X136811490Y-91985984D01*
X136778581Y-92048893D01*
X136716886Y-92084024D01*
X136645991Y-92080223D01*
X136590512Y-92041334D01*
X136576157Y-92023843D01*
X136429110Y-91903164D01*
X136261346Y-91813492D01*
X136079310Y-91758272D01*
X136079309Y-91758271D01*
X136079303Y-91758270D01*
X135890003Y-91739627D01*
X135889997Y-91739627D01*
X135700696Y-91758270D01*
X135518653Y-91813492D01*
X135350889Y-91903164D01*
X135203843Y-92023843D01*
X135083164Y-92170889D01*
X134993492Y-92338653D01*
X134938270Y-92520696D01*
X134919627Y-92709996D01*
X134919627Y-92710003D01*
X134938270Y-92899303D01*
X134938271Y-92899309D01*
X134938272Y-92899310D01*
X134993492Y-93081346D01*
X135083164Y-93249110D01*
X135203843Y-93396157D01*
X135350890Y-93516836D01*
X135518654Y-93606508D01*
X135700690Y-93661728D01*
X135700694Y-93661728D01*
X135700696Y-93661729D01*
X135889997Y-93680373D01*
X135889998Y-93680373D01*
X135889998Y-93680372D01*
X135890000Y-93680373D01*
X135915073Y-93677903D01*
X135984823Y-93691130D01*
X136036353Y-93739969D01*
X136053298Y-93808914D01*
X136030278Y-93876075D01*
X135997425Y-93908061D01*
X135880213Y-93986379D01*
X135865939Y-93994620D01*
X135668363Y-94092052D01*
X135653136Y-94098359D01*
X135444548Y-94169164D01*
X135428627Y-94173430D01*
X135212569Y-94216404D01*
X135196228Y-94218555D01*
X134972296Y-94233229D01*
X134964057Y-94233499D01*
X134903175Y-94233499D01*
X134903163Y-94233500D01*
X133943802Y-94233500D01*
X133426843Y-94268862D01*
X133426833Y-94268862D01*
X133426831Y-94268863D01*
X133426829Y-94268863D01*
X133426809Y-94268865D01*
X132913484Y-94339420D01*
X132913482Y-94339421D01*
X132913476Y-94339422D01*
X132406132Y-94444849D01*
X132212098Y-94499215D01*
X132080000Y-94536227D01*
X132080000Y-93766252D01*
X132135471Y-93702235D01*
X132263190Y-93503502D01*
X132361325Y-93288614D01*
X132427881Y-93061948D01*
X132461500Y-92828118D01*
X132461500Y-92710000D01*
X132461500Y-92655149D01*
X132461500Y-90956503D01*
X132481502Y-90888382D01*
X132535158Y-90841889D01*
X132605432Y-90831785D01*
X132667433Y-90859103D01*
X132810890Y-90976836D01*
X132978654Y-91066508D01*
X133160690Y-91121728D01*
X133160694Y-91121728D01*
X133160696Y-91121729D01*
X133349997Y-91140373D01*
X133350000Y-91140373D01*
X133350003Y-91140373D01*
X133539303Y-91121729D01*
X133539304Y-91121728D01*
X133539310Y-91121728D01*
X133721346Y-91066508D01*
X133889110Y-90976836D01*
X134036157Y-90856157D01*
X134156836Y-90709110D01*
X134246508Y-90541346D01*
X134301728Y-90359310D01*
X134320373Y-90170000D01*
X134320373Y-90169996D01*
X134919627Y-90169996D01*
X134919627Y-90170003D01*
X134938270Y-90359303D01*
X134938271Y-90359309D01*
X134938272Y-90359310D01*
X134993492Y-90541346D01*
X135083164Y-90709110D01*
X135203843Y-90856157D01*
X135350890Y-90976836D01*
X135518654Y-91066508D01*
X135700690Y-91121728D01*
X135700694Y-91121728D01*
X135700696Y-91121729D01*
X135889997Y-91140373D01*
X135890000Y-91140373D01*
X135890003Y-91140373D01*
X136079303Y-91121729D01*
X136079304Y-91121728D01*
X136079310Y-91121728D01*
X136261346Y-91066508D01*
X136429110Y-90976836D01*
X136576157Y-90856157D01*
X136696836Y-90709110D01*
X136786508Y-90541346D01*
X136841728Y-90359310D01*
X136860373Y-90170000D01*
X136848116Y-90045548D01*
X136841729Y-89980696D01*
X136841728Y-89980694D01*
X136841728Y-89980690D01*
X136786508Y-89798654D01*
X136696836Y-89630890D01*
X136576157Y-89483843D01*
X136429110Y-89363164D01*
X136261346Y-89273492D01*
X136079310Y-89218272D01*
X136079309Y-89218271D01*
X136079303Y-89218270D01*
X135890003Y-89199627D01*
X135889997Y-89199627D01*
X135700696Y-89218270D01*
X135518653Y-89273492D01*
X135350889Y-89363164D01*
X135203843Y-89483843D01*
X135083164Y-89630889D01*
X134993492Y-89798653D01*
X134938270Y-89980696D01*
X134919627Y-90169996D01*
X134320373Y-90169996D01*
X134308116Y-90045548D01*
X134301729Y-89980696D01*
X134301728Y-89980694D01*
X134301728Y-89980690D01*
X134246508Y-89798654D01*
X134156836Y-89630890D01*
X134036157Y-89483843D01*
X133889110Y-89363164D01*
X133721346Y-89273492D01*
X133539310Y-89218272D01*
X133539309Y-89218271D01*
X133539303Y-89218270D01*
X133350003Y-89199627D01*
X133349997Y-89199627D01*
X133160696Y-89218270D01*
X132978653Y-89273492D01*
X132810886Y-89363165D01*
X132810886Y-89363166D01*
X132667433Y-89480895D01*
X132602086Y-89508649D01*
X132532108Y-89496667D01*
X132479716Y-89448754D01*
X132461500Y-89383496D01*
X132461500Y-89167232D01*
X132461770Y-89158993D01*
X132470883Y-89019934D01*
X132476243Y-88938136D01*
X132478390Y-88921824D01*
X132520764Y-88708781D01*
X132525022Y-88692890D01*
X132594841Y-88487198D01*
X132601139Y-88471992D01*
X132607278Y-88459543D01*
X132655347Y-88407296D01*
X132708254Y-88392612D01*
X132707968Y-88390066D01*
X132714998Y-88389273D01*
X132715000Y-88389274D01*
X132883954Y-88370237D01*
X133044437Y-88314082D01*
X133188400Y-88223624D01*
X133308624Y-88103400D01*
X133399082Y-87959437D01*
X133455237Y-87798954D01*
X133474274Y-87630000D01*
X133474274Y-87629996D01*
X137459627Y-87629996D01*
X137459627Y-87630003D01*
X137478270Y-87819303D01*
X137478271Y-87819309D01*
X137478272Y-87819310D01*
X137533492Y-88001346D01*
X137623164Y-88169110D01*
X137743843Y-88316157D01*
X137890890Y-88436836D01*
X138058654Y-88526508D01*
X138240690Y-88581728D01*
X138240694Y-88581728D01*
X138240696Y-88581729D01*
X138429997Y-88600373D01*
X138430000Y-88600373D01*
X138430003Y-88600373D01*
X138619303Y-88581729D01*
X138619304Y-88581728D01*
X138619310Y-88581728D01*
X138801346Y-88526508D01*
X138969110Y-88436836D01*
X139116157Y-88316157D01*
X139236836Y-88169110D01*
X139326508Y-88001346D01*
X139381728Y-87819310D01*
X139400373Y-87630000D01*
X139400373Y-87629996D01*
X139999627Y-87629996D01*
X139999627Y-87630003D01*
X140018270Y-87819303D01*
X140018271Y-87819309D01*
X140018272Y-87819310D01*
X140073492Y-88001346D01*
X140163164Y-88169110D01*
X140283843Y-88316157D01*
X140430890Y-88436836D01*
X140598654Y-88526508D01*
X140780690Y-88581728D01*
X140780694Y-88581728D01*
X140780696Y-88581729D01*
X140969997Y-88600373D01*
X140970000Y-88600373D01*
X140970003Y-88600373D01*
X141159303Y-88581729D01*
X141159304Y-88581728D01*
X141159310Y-88581728D01*
X141341346Y-88526508D01*
X141509110Y-88436836D01*
X141656157Y-88316157D01*
X141776836Y-88169110D01*
X141866508Y-88001346D01*
X141921728Y-87819310D01*
X141940373Y-87630000D01*
X141940373Y-87629995D01*
X141921729Y-87440696D01*
X141921728Y-87440694D01*
X141921728Y-87440690D01*
X141866508Y-87258654D01*
X141776836Y-87090890D01*
X141656157Y-86943843D01*
X141509110Y-86823164D01*
X141341346Y-86733492D01*
X141159310Y-86678272D01*
X141159309Y-86678271D01*
X141159303Y-86678270D01*
X140970003Y-86659627D01*
X140969997Y-86659627D01*
X140780696Y-86678270D01*
X140598653Y-86733492D01*
X140430889Y-86823164D01*
X140283843Y-86943843D01*
X140163164Y-87090889D01*
X140073492Y-87258653D01*
X140018270Y-87440696D01*
X139999627Y-87629996D01*
X139400373Y-87629996D01*
X139400373Y-87629995D01*
X139381729Y-87440696D01*
X139381728Y-87440694D01*
X139381728Y-87440690D01*
X139326508Y-87258654D01*
X139236836Y-87090890D01*
X139116157Y-86943843D01*
X138969110Y-86823164D01*
X138801346Y-86733492D01*
X138619310Y-86678272D01*
X138619309Y-86678271D01*
X138619303Y-86678270D01*
X138430003Y-86659627D01*
X138429997Y-86659627D01*
X138240696Y-86678270D01*
X138058653Y-86733492D01*
X137890889Y-86823164D01*
X137743843Y-86943843D01*
X137623164Y-87090889D01*
X137533492Y-87258653D01*
X137478270Y-87440696D01*
X137459627Y-87629996D01*
X133474274Y-87629996D01*
X133455237Y-87461046D01*
X133399082Y-87300563D01*
X133308624Y-87156600D01*
X133308622Y-87156597D01*
X133188402Y-87036377D01*
X133188399Y-87036375D01*
X133044439Y-86945919D01*
X133044437Y-86945918D01*
X132950956Y-86913208D01*
X132883954Y-86889763D01*
X132715000Y-86870726D01*
X132546045Y-86889763D01*
X132388532Y-86944879D01*
X132317628Y-86948497D01*
X132256023Y-86913208D01*
X132223277Y-86850214D01*
X132226622Y-86788467D01*
X132242797Y-86736562D01*
X132248184Y-86722360D01*
X132367817Y-86456545D01*
X132374875Y-86443095D01*
X132525690Y-86193618D01*
X132534306Y-86181134D01*
X132714097Y-85951648D01*
X132724165Y-85940285D01*
X132930285Y-85734165D01*
X132941648Y-85724097D01*
X133171134Y-85544306D01*
X133183618Y-85535690D01*
X133433095Y-85384875D01*
X133446545Y-85377817D01*
X133712360Y-85258184D01*
X133726562Y-85252797D01*
X134004881Y-85166069D01*
X134019621Y-85162436D01*
X134306354Y-85109890D01*
X134321431Y-85108059D01*
X134587542Y-85091963D01*
X134616199Y-85090230D01*
X134623806Y-85090000D01*
X137345427Y-85090000D01*
X137413548Y-85110002D01*
X137460041Y-85163658D01*
X137470820Y-85203651D01*
X137478270Y-85279302D01*
X137478271Y-85279307D01*
X137478272Y-85279310D01*
X137533492Y-85461346D01*
X137623164Y-85629110D01*
X137743843Y-85776157D01*
X137890890Y-85896836D01*
X138058654Y-85986508D01*
X138240690Y-86041728D01*
X138240694Y-86041728D01*
X138240696Y-86041729D01*
X138429997Y-86060373D01*
X138430000Y-86060373D01*
X138430003Y-86060373D01*
X138619303Y-86041729D01*
X138619304Y-86041728D01*
X138619310Y-86041728D01*
X138801346Y-85986508D01*
X138969110Y-85896836D01*
X139116157Y-85776157D01*
X139236836Y-85629110D01*
X139326508Y-85461346D01*
X139381728Y-85279310D01*
X139382482Y-85271652D01*
X139389180Y-85203651D01*
X139415762Y-85137818D01*
X139473716Y-85096808D01*
X139514573Y-85090000D01*
X139885427Y-85090000D01*
X139953548Y-85110002D01*
X140000041Y-85163658D01*
X140010820Y-85203651D01*
X140018270Y-85279302D01*
X140018271Y-85279307D01*
X140018272Y-85279310D01*
X140073492Y-85461346D01*
X140163164Y-85629110D01*
X140283843Y-85776157D01*
X140430890Y-85896836D01*
X140598654Y-85986508D01*
X140780690Y-86041728D01*
X140780694Y-86041728D01*
X140780696Y-86041729D01*
X140969997Y-86060373D01*
X140970000Y-86060373D01*
X140970003Y-86060373D01*
X141159303Y-86041729D01*
X141159304Y-86041728D01*
X141159310Y-86041728D01*
X141341346Y-85986508D01*
X141509110Y-85896836D01*
X141656157Y-85776157D01*
X141776836Y-85629110D01*
X141866508Y-85461346D01*
X141882080Y-85410007D01*
X141920993Y-85350627D01*
X141966068Y-85326011D01*
X142145226Y-85271650D01*
X142461491Y-85140627D01*
X142763394Y-84979240D01*
X142763402Y-84979234D01*
X142763407Y-84979232D01*
X143048027Y-84789045D01*
X143133797Y-84718654D01*
X143312653Y-84571869D01*
X143387796Y-84496725D01*
X143387804Y-84496718D01*
X143398172Y-84486349D01*
X143398174Y-84486349D01*
X143453078Y-84431444D01*
X143472472Y-84412052D01*
X143472472Y-84412050D01*
X143482837Y-84401687D01*
X143482844Y-84401677D01*
X147779143Y-80105378D01*
X147841452Y-80071355D01*
X147843543Y-80070919D01*
X148032481Y-80033338D01*
X148048796Y-80031190D01*
X148334660Y-80012454D01*
X148367984Y-80010270D01*
X148376224Y-80010000D01*
X148902544Y-80010000D01*
X148912430Y-80010388D01*
G37*
G04 #@! TD.AperFunction*
M02*
