G04 #@! TF.GenerationSoftware,KiCad,Pcbnew,8.0.4*
G04 #@! TF.CreationDate,2024-11-26T19:46:24-06:00*
G04 #@! TF.ProjectId,Flash-2716,466c6173-682d-4323-9731-362e6b696361,rev?*
G04 #@! TF.SameCoordinates,Original*
G04 #@! TF.FileFunction,Soldermask,Bot*
G04 #@! TF.FilePolarity,Negative*
%FSLAX46Y46*%
G04 Gerber Fmt 4.6, Leading zero omitted, Abs format (unit mm)*
G04 Created by KiCad (PCBNEW 8.0.4) date 2024-11-26 19:46:24*
%MOMM*%
%LPD*%
G01*
G04 APERTURE LIST*
%ADD10C,1.700000*%
%ADD11O,1.700000X1.700000*%
%ADD12R,1.600000X1.600000*%
%ADD13O,1.600000X1.600000*%
%ADD14R,1.700000X1.700000*%
%ADD15R,1.422400X1.422400*%
%ADD16C,1.422400*%
%ADD17O,1.422400X1.422400*%
G04 APERTURE END LIST*
D10*
X148590000Y-76215000D03*
D11*
X148590000Y-78755000D03*
X148590000Y-81295000D03*
D10*
X148590000Y-99075000D03*
D11*
X148590000Y-101615000D03*
X148590000Y-104155000D03*
D12*
X106680000Y-76200000D03*
D13*
X106680000Y-78740000D03*
X106680000Y-81280000D03*
X106680000Y-83820000D03*
X106680000Y-86360000D03*
X106680000Y-88900000D03*
X106680000Y-91440000D03*
X106680000Y-93980000D03*
X106680000Y-96520000D03*
X106680000Y-99060000D03*
X106680000Y-101600000D03*
X106680000Y-104140000D03*
X121920000Y-104140000D03*
X121920000Y-101600000D03*
X121920000Y-99060000D03*
X121920000Y-96520000D03*
X121920000Y-93980000D03*
X121920000Y-91440000D03*
X121920000Y-88900000D03*
X121920000Y-86360000D03*
X121920000Y-83820000D03*
X121920000Y-81280000D03*
X121920000Y-78740000D03*
X121920000Y-76200000D03*
D10*
X146050000Y-78755000D03*
D12*
X104140000Y-76200000D03*
D13*
X104140000Y-78740000D03*
X104140000Y-81280000D03*
X104140000Y-83820000D03*
X104140000Y-86360000D03*
X104140000Y-88900000D03*
X104140000Y-91440000D03*
X104140000Y-93980000D03*
X104140000Y-96520000D03*
X104140000Y-99060000D03*
X104140000Y-101600000D03*
X104140000Y-104140000D03*
X119380000Y-104140000D03*
X119380000Y-101600000D03*
X119380000Y-99060000D03*
X119380000Y-96520000D03*
X119380000Y-93980000D03*
X119380000Y-91440000D03*
X119380000Y-88900000D03*
X119380000Y-86360000D03*
X119380000Y-83820000D03*
X119380000Y-81280000D03*
X119380000Y-78740000D03*
X119380000Y-76200000D03*
D10*
X137160000Y-99075000D03*
D11*
X137160000Y-101615000D03*
X137160000Y-104155000D03*
D14*
X125730000Y-99060000D03*
D11*
X125730000Y-101600000D03*
X125730000Y-104140000D03*
D10*
X148590000Y-87630000D03*
D11*
X148590000Y-90170000D03*
X148590000Y-92710000D03*
D10*
X140970000Y-99060000D03*
D11*
X140970000Y-101600000D03*
X140970000Y-104140000D03*
D10*
X144780000Y-99075000D03*
D11*
X144780000Y-101615000D03*
X144780000Y-104155000D03*
D10*
X133350000Y-99075000D03*
D11*
X133350000Y-101615000D03*
X133350000Y-104155000D03*
D15*
X135890000Y-80010000D03*
D16*
X133350000Y-77470000D03*
X133350000Y-80010000D03*
X130810000Y-77470000D03*
X128270000Y-80010000D03*
X130810000Y-80010000D03*
X128270000Y-82550000D03*
X130810000Y-82550000D03*
X128270000Y-85090000D03*
X130810000Y-85090000D03*
X128270000Y-87630000D03*
X130810000Y-87630000D03*
X128270000Y-90170000D03*
X130810000Y-92710000D03*
X130810000Y-90170000D03*
X133350000Y-92710000D03*
X133350000Y-90170000D03*
X135890000Y-92710000D03*
X135890000Y-90170000D03*
X138430000Y-92710000D03*
X140970000Y-90170000D03*
X138430000Y-90170000D03*
X140970000Y-87630000D03*
X138430000Y-87630000D03*
X140970000Y-85090000D03*
X138430000Y-85090000D03*
X140970000Y-82550000D03*
X138430000Y-82550000D03*
X140970000Y-80010000D03*
X138430000Y-77470000D03*
X138430000Y-80010000D03*
X135890000Y-77470000D03*
D10*
X129540000Y-99075000D03*
D11*
X129540000Y-101615000D03*
X129540000Y-104155000D03*
D15*
X101600000Y-76200000D03*
D17*
X101600000Y-78740000D03*
X101600000Y-81280000D03*
X101600000Y-83820000D03*
X101600000Y-86360000D03*
X101600000Y-88900000D03*
X101600000Y-91440000D03*
X101600000Y-93980000D03*
X101600000Y-96520000D03*
X101600000Y-99060000D03*
X101600000Y-101600000D03*
X101600000Y-104140000D03*
D16*
X116840000Y-76200000D03*
D17*
X116840000Y-78740000D03*
X116840000Y-81280000D03*
X116840000Y-83820000D03*
X116840000Y-86360000D03*
X116840000Y-88900000D03*
X116840000Y-91440000D03*
X116840000Y-93980000D03*
X116840000Y-96520000D03*
X116840000Y-99060000D03*
X116840000Y-101600000D03*
X116840000Y-104140000D03*
M02*
