%TF.GenerationSoftware,KiCad,Pcbnew,8.0.4*%
%TF.CreationDate,2024-11-26T19:47:34-06:00*%
%TF.ProjectId,Flash-2716,466c6173-682d-4323-9731-362e6b696361,rev?*%
%TF.SameCoordinates,Original*%
%TF.FileFunction,Drillmap*%
%TF.FilePolarity,Positive*%
%FSLAX45Y45*%
G04 Gerber Fmt 4.5, Leading zero omitted, Abs format (unit mm)*
G04 Created by KiCad (PCBNEW 8.0.4) date 2024-11-26 19:47:34*
%MOMM*%
%LPD*%
G01*
G04 APERTURE LIST*
%ADD10C,0.100000*%
%ADD11C,0.200000*%
G04 APERTURE END LIST*
D10*
X11049000Y-7429500D02*
G75*
G02*
X11112500Y-7493000I0J-63500D01*
G01*
X11239500Y-7493000D02*
G75*
G02*
X11303000Y-7429500I63500J0D01*
G01*
X15049500Y-10541000D02*
G75*
G02*
X14986000Y-10604500I-63500J0D01*
G01*
X11303000Y-7429500D02*
X14986000Y-7429500D01*
X14986000Y-10604500D02*
X10033000Y-10604500D01*
X10033000Y-10604500D02*
G75*
G02*
X9969500Y-10541000I0J63500D01*
G01*
X9969500Y-10541000D02*
X9969500Y-7493000D01*
X10033000Y-7429500D02*
X11049000Y-7429500D01*
X9969500Y-7493000D02*
G75*
G02*
X10033000Y-7429500I63500J0D01*
G01*
X14986000Y-7429500D02*
G75*
G02*
X15049500Y-7493000I0J-63500D01*
G01*
X11239500Y-7493000D02*
G75*
G02*
X11112500Y-7493000I-63500J0D01*
G01*
X15049500Y-7493000D02*
X15049500Y-10541000D01*
D11*
D10*
X11405000Y-10389000D02*
X11455000Y-10439000D01*
X11455000Y-10389000D02*
X11405000Y-10439000D01*
X13246500Y-8738000D02*
X13296500Y-8788000D01*
X13296500Y-8738000D02*
X13246500Y-8788000D01*
X10200000Y-7620000D02*
G75*
G02*
X10120000Y-7620000I-40000J0D01*
G01*
X10120000Y-7620000D02*
G75*
G02*
X10200000Y-7620000I40000J0D01*
G01*
X10200000Y-7874000D02*
G75*
G02*
X10120000Y-7874000I-40000J0D01*
G01*
X10120000Y-7874000D02*
G75*
G02*
X10200000Y-7874000I40000J0D01*
G01*
X10200000Y-8128000D02*
G75*
G02*
X10120000Y-8128000I-40000J0D01*
G01*
X10120000Y-8128000D02*
G75*
G02*
X10200000Y-8128000I40000J0D01*
G01*
X10200000Y-8382000D02*
G75*
G02*
X10120000Y-8382000I-40000J0D01*
G01*
X10120000Y-8382000D02*
G75*
G02*
X10200000Y-8382000I40000J0D01*
G01*
X10200000Y-8636000D02*
G75*
G02*
X10120000Y-8636000I-40000J0D01*
G01*
X10120000Y-8636000D02*
G75*
G02*
X10200000Y-8636000I40000J0D01*
G01*
X10200000Y-8890000D02*
G75*
G02*
X10120000Y-8890000I-40000J0D01*
G01*
X10120000Y-8890000D02*
G75*
G02*
X10200000Y-8890000I40000J0D01*
G01*
X10200000Y-9144000D02*
G75*
G02*
X10120000Y-9144000I-40000J0D01*
G01*
X10120000Y-9144000D02*
G75*
G02*
X10200000Y-9144000I40000J0D01*
G01*
X10200000Y-9398000D02*
G75*
G02*
X10120000Y-9398000I-40000J0D01*
G01*
X10120000Y-9398000D02*
G75*
G02*
X10200000Y-9398000I40000J0D01*
G01*
X10200000Y-9652000D02*
G75*
G02*
X10120000Y-9652000I-40000J0D01*
G01*
X10120000Y-9652000D02*
G75*
G02*
X10200000Y-9652000I40000J0D01*
G01*
X10200000Y-9906000D02*
G75*
G02*
X10120000Y-9906000I-40000J0D01*
G01*
X10120000Y-9906000D02*
G75*
G02*
X10200000Y-9906000I40000J0D01*
G01*
X10200000Y-10160000D02*
G75*
G02*
X10120000Y-10160000I-40000J0D01*
G01*
X10120000Y-10160000D02*
G75*
G02*
X10200000Y-10160000I40000J0D01*
G01*
X10200000Y-10414000D02*
G75*
G02*
X10120000Y-10414000I-40000J0D01*
G01*
X10120000Y-10414000D02*
G75*
G02*
X10200000Y-10414000I40000J0D01*
G01*
X10454000Y-7620000D02*
G75*
G02*
X10374000Y-7620000I-40000J0D01*
G01*
X10374000Y-7620000D02*
G75*
G02*
X10454000Y-7620000I40000J0D01*
G01*
X10454000Y-7874000D02*
G75*
G02*
X10374000Y-7874000I-40000J0D01*
G01*
X10374000Y-7874000D02*
G75*
G02*
X10454000Y-7874000I40000J0D01*
G01*
X10454000Y-8128000D02*
G75*
G02*
X10374000Y-8128000I-40000J0D01*
G01*
X10374000Y-8128000D02*
G75*
G02*
X10454000Y-8128000I40000J0D01*
G01*
X10454000Y-8382000D02*
G75*
G02*
X10374000Y-8382000I-40000J0D01*
G01*
X10374000Y-8382000D02*
G75*
G02*
X10454000Y-8382000I40000J0D01*
G01*
X10454000Y-8636000D02*
G75*
G02*
X10374000Y-8636000I-40000J0D01*
G01*
X10374000Y-8636000D02*
G75*
G02*
X10454000Y-8636000I40000J0D01*
G01*
X10454000Y-8890000D02*
G75*
G02*
X10374000Y-8890000I-40000J0D01*
G01*
X10374000Y-8890000D02*
G75*
G02*
X10454000Y-8890000I40000J0D01*
G01*
X10454000Y-9144000D02*
G75*
G02*
X10374000Y-9144000I-40000J0D01*
G01*
X10374000Y-9144000D02*
G75*
G02*
X10454000Y-9144000I40000J0D01*
G01*
X10454000Y-9398000D02*
G75*
G02*
X10374000Y-9398000I-40000J0D01*
G01*
X10374000Y-9398000D02*
G75*
G02*
X10454000Y-9398000I40000J0D01*
G01*
X10454000Y-9652000D02*
G75*
G02*
X10374000Y-9652000I-40000J0D01*
G01*
X10374000Y-9652000D02*
G75*
G02*
X10454000Y-9652000I40000J0D01*
G01*
X10454000Y-9906000D02*
G75*
G02*
X10374000Y-9906000I-40000J0D01*
G01*
X10374000Y-9906000D02*
G75*
G02*
X10454000Y-9906000I40000J0D01*
G01*
X10454000Y-10160000D02*
G75*
G02*
X10374000Y-10160000I-40000J0D01*
G01*
X10374000Y-10160000D02*
G75*
G02*
X10454000Y-10160000I40000J0D01*
G01*
X10454000Y-10414000D02*
G75*
G02*
X10374000Y-10414000I-40000J0D01*
G01*
X10374000Y-10414000D02*
G75*
G02*
X10454000Y-10414000I40000J0D01*
G01*
X10708000Y-7620000D02*
G75*
G02*
X10628000Y-7620000I-40000J0D01*
G01*
X10628000Y-7620000D02*
G75*
G02*
X10708000Y-7620000I40000J0D01*
G01*
X10708000Y-7874000D02*
G75*
G02*
X10628000Y-7874000I-40000J0D01*
G01*
X10628000Y-7874000D02*
G75*
G02*
X10708000Y-7874000I40000J0D01*
G01*
X10708000Y-8128000D02*
G75*
G02*
X10628000Y-8128000I-40000J0D01*
G01*
X10628000Y-8128000D02*
G75*
G02*
X10708000Y-8128000I40000J0D01*
G01*
X10708000Y-8382000D02*
G75*
G02*
X10628000Y-8382000I-40000J0D01*
G01*
X10628000Y-8382000D02*
G75*
G02*
X10708000Y-8382000I40000J0D01*
G01*
X10708000Y-8636000D02*
G75*
G02*
X10628000Y-8636000I-40000J0D01*
G01*
X10628000Y-8636000D02*
G75*
G02*
X10708000Y-8636000I40000J0D01*
G01*
X10708000Y-8890000D02*
G75*
G02*
X10628000Y-8890000I-40000J0D01*
G01*
X10628000Y-8890000D02*
G75*
G02*
X10708000Y-8890000I40000J0D01*
G01*
X10708000Y-9144000D02*
G75*
G02*
X10628000Y-9144000I-40000J0D01*
G01*
X10628000Y-9144000D02*
G75*
G02*
X10708000Y-9144000I40000J0D01*
G01*
X10708000Y-9398000D02*
G75*
G02*
X10628000Y-9398000I-40000J0D01*
G01*
X10628000Y-9398000D02*
G75*
G02*
X10708000Y-9398000I40000J0D01*
G01*
X10708000Y-9652000D02*
G75*
G02*
X10628000Y-9652000I-40000J0D01*
G01*
X10628000Y-9652000D02*
G75*
G02*
X10708000Y-9652000I40000J0D01*
G01*
X10708000Y-9906000D02*
G75*
G02*
X10628000Y-9906000I-40000J0D01*
G01*
X10628000Y-9906000D02*
G75*
G02*
X10708000Y-9906000I40000J0D01*
G01*
X10708000Y-10160000D02*
G75*
G02*
X10628000Y-10160000I-40000J0D01*
G01*
X10628000Y-10160000D02*
G75*
G02*
X10708000Y-10160000I40000J0D01*
G01*
X10708000Y-10414000D02*
G75*
G02*
X10628000Y-10414000I-40000J0D01*
G01*
X10628000Y-10414000D02*
G75*
G02*
X10708000Y-10414000I40000J0D01*
G01*
X11724000Y-7620000D02*
G75*
G02*
X11644000Y-7620000I-40000J0D01*
G01*
X11644000Y-7620000D02*
G75*
G02*
X11724000Y-7620000I40000J0D01*
G01*
X11724000Y-7874000D02*
G75*
G02*
X11644000Y-7874000I-40000J0D01*
G01*
X11644000Y-7874000D02*
G75*
G02*
X11724000Y-7874000I40000J0D01*
G01*
X11724000Y-8128000D02*
G75*
G02*
X11644000Y-8128000I-40000J0D01*
G01*
X11644000Y-8128000D02*
G75*
G02*
X11724000Y-8128000I40000J0D01*
G01*
X11724000Y-8382000D02*
G75*
G02*
X11644000Y-8382000I-40000J0D01*
G01*
X11644000Y-8382000D02*
G75*
G02*
X11724000Y-8382000I40000J0D01*
G01*
X11724000Y-8636000D02*
G75*
G02*
X11644000Y-8636000I-40000J0D01*
G01*
X11644000Y-8636000D02*
G75*
G02*
X11724000Y-8636000I40000J0D01*
G01*
X11724000Y-8890000D02*
G75*
G02*
X11644000Y-8890000I-40000J0D01*
G01*
X11644000Y-8890000D02*
G75*
G02*
X11724000Y-8890000I40000J0D01*
G01*
X11724000Y-9144000D02*
G75*
G02*
X11644000Y-9144000I-40000J0D01*
G01*
X11644000Y-9144000D02*
G75*
G02*
X11724000Y-9144000I40000J0D01*
G01*
X11724000Y-9398000D02*
G75*
G02*
X11644000Y-9398000I-40000J0D01*
G01*
X11644000Y-9398000D02*
G75*
G02*
X11724000Y-9398000I40000J0D01*
G01*
X11724000Y-9652000D02*
G75*
G02*
X11644000Y-9652000I-40000J0D01*
G01*
X11644000Y-9652000D02*
G75*
G02*
X11724000Y-9652000I40000J0D01*
G01*
X11724000Y-9906000D02*
G75*
G02*
X11644000Y-9906000I-40000J0D01*
G01*
X11644000Y-9906000D02*
G75*
G02*
X11724000Y-9906000I40000J0D01*
G01*
X11724000Y-10160000D02*
G75*
G02*
X11644000Y-10160000I-40000J0D01*
G01*
X11644000Y-10160000D02*
G75*
G02*
X11724000Y-10160000I40000J0D01*
G01*
X11724000Y-10414000D02*
G75*
G02*
X11644000Y-10414000I-40000J0D01*
G01*
X11644000Y-10414000D02*
G75*
G02*
X11724000Y-10414000I40000J0D01*
G01*
X11978000Y-7620000D02*
G75*
G02*
X11898000Y-7620000I-40000J0D01*
G01*
X11898000Y-7620000D02*
G75*
G02*
X11978000Y-7620000I40000J0D01*
G01*
X11978000Y-7874000D02*
G75*
G02*
X11898000Y-7874000I-40000J0D01*
G01*
X11898000Y-7874000D02*
G75*
G02*
X11978000Y-7874000I40000J0D01*
G01*
X11978000Y-8128000D02*
G75*
G02*
X11898000Y-8128000I-40000J0D01*
G01*
X11898000Y-8128000D02*
G75*
G02*
X11978000Y-8128000I40000J0D01*
G01*
X11978000Y-8382000D02*
G75*
G02*
X11898000Y-8382000I-40000J0D01*
G01*
X11898000Y-8382000D02*
G75*
G02*
X11978000Y-8382000I40000J0D01*
G01*
X11978000Y-8636000D02*
G75*
G02*
X11898000Y-8636000I-40000J0D01*
G01*
X11898000Y-8636000D02*
G75*
G02*
X11978000Y-8636000I40000J0D01*
G01*
X11978000Y-8890000D02*
G75*
G02*
X11898000Y-8890000I-40000J0D01*
G01*
X11898000Y-8890000D02*
G75*
G02*
X11978000Y-8890000I40000J0D01*
G01*
X11978000Y-9144000D02*
G75*
G02*
X11898000Y-9144000I-40000J0D01*
G01*
X11898000Y-9144000D02*
G75*
G02*
X11978000Y-9144000I40000J0D01*
G01*
X11978000Y-9398000D02*
G75*
G02*
X11898000Y-9398000I-40000J0D01*
G01*
X11898000Y-9398000D02*
G75*
G02*
X11978000Y-9398000I40000J0D01*
G01*
X11978000Y-9652000D02*
G75*
G02*
X11898000Y-9652000I-40000J0D01*
G01*
X11898000Y-9652000D02*
G75*
G02*
X11978000Y-9652000I40000J0D01*
G01*
X11978000Y-9906000D02*
G75*
G02*
X11898000Y-9906000I-40000J0D01*
G01*
X11898000Y-9906000D02*
G75*
G02*
X11978000Y-9906000I40000J0D01*
G01*
X11978000Y-10160000D02*
G75*
G02*
X11898000Y-10160000I-40000J0D01*
G01*
X11898000Y-10160000D02*
G75*
G02*
X11978000Y-10160000I40000J0D01*
G01*
X11978000Y-10414000D02*
G75*
G02*
X11898000Y-10414000I-40000J0D01*
G01*
X11898000Y-10414000D02*
G75*
G02*
X11978000Y-10414000I40000J0D01*
G01*
X12232000Y-7620000D02*
G75*
G02*
X12152000Y-7620000I-40000J0D01*
G01*
X12152000Y-7620000D02*
G75*
G02*
X12232000Y-7620000I40000J0D01*
G01*
X12232000Y-7874000D02*
G75*
G02*
X12152000Y-7874000I-40000J0D01*
G01*
X12152000Y-7874000D02*
G75*
G02*
X12232000Y-7874000I40000J0D01*
G01*
X12232000Y-8128000D02*
G75*
G02*
X12152000Y-8128000I-40000J0D01*
G01*
X12152000Y-8128000D02*
G75*
G02*
X12232000Y-8128000I40000J0D01*
G01*
X12232000Y-8382000D02*
G75*
G02*
X12152000Y-8382000I-40000J0D01*
G01*
X12152000Y-8382000D02*
G75*
G02*
X12232000Y-8382000I40000J0D01*
G01*
X12232000Y-8636000D02*
G75*
G02*
X12152000Y-8636000I-40000J0D01*
G01*
X12152000Y-8636000D02*
G75*
G02*
X12232000Y-8636000I40000J0D01*
G01*
X12232000Y-8890000D02*
G75*
G02*
X12152000Y-8890000I-40000J0D01*
G01*
X12152000Y-8890000D02*
G75*
G02*
X12232000Y-8890000I40000J0D01*
G01*
X12232000Y-9144000D02*
G75*
G02*
X12152000Y-9144000I-40000J0D01*
G01*
X12152000Y-9144000D02*
G75*
G02*
X12232000Y-9144000I40000J0D01*
G01*
X12232000Y-9398000D02*
G75*
G02*
X12152000Y-9398000I-40000J0D01*
G01*
X12152000Y-9398000D02*
G75*
G02*
X12232000Y-9398000I40000J0D01*
G01*
X12232000Y-9652000D02*
G75*
G02*
X12152000Y-9652000I-40000J0D01*
G01*
X12152000Y-9652000D02*
G75*
G02*
X12232000Y-9652000I40000J0D01*
G01*
X12232000Y-9906000D02*
G75*
G02*
X12152000Y-9906000I-40000J0D01*
G01*
X12152000Y-9906000D02*
G75*
G02*
X12232000Y-9906000I40000J0D01*
G01*
X12232000Y-10160000D02*
G75*
G02*
X12152000Y-10160000I-40000J0D01*
G01*
X12152000Y-10160000D02*
G75*
G02*
X12232000Y-10160000I40000J0D01*
G01*
X12232000Y-10414000D02*
G75*
G02*
X12152000Y-10414000I-40000J0D01*
G01*
X12152000Y-10414000D02*
G75*
G02*
X12232000Y-10414000I40000J0D01*
G01*
X12867000Y-8001000D02*
G75*
G02*
X12787000Y-8001000I-40000J0D01*
G01*
X12787000Y-8001000D02*
G75*
G02*
X12867000Y-8001000I40000J0D01*
G01*
X12867000Y-8255000D02*
G75*
G02*
X12787000Y-8255000I-40000J0D01*
G01*
X12787000Y-8255000D02*
G75*
G02*
X12867000Y-8255000I40000J0D01*
G01*
X12867000Y-8509000D02*
G75*
G02*
X12787000Y-8509000I-40000J0D01*
G01*
X12787000Y-8509000D02*
G75*
G02*
X12867000Y-8509000I40000J0D01*
G01*
X12867000Y-8763000D02*
G75*
G02*
X12787000Y-8763000I-40000J0D01*
G01*
X12787000Y-8763000D02*
G75*
G02*
X12867000Y-8763000I40000J0D01*
G01*
X12867000Y-9017000D02*
G75*
G02*
X12787000Y-9017000I-40000J0D01*
G01*
X12787000Y-9017000D02*
G75*
G02*
X12867000Y-9017000I40000J0D01*
G01*
X13121000Y-7747000D02*
G75*
G02*
X13041000Y-7747000I-40000J0D01*
G01*
X13041000Y-7747000D02*
G75*
G02*
X13121000Y-7747000I40000J0D01*
G01*
X13121000Y-8001000D02*
G75*
G02*
X13041000Y-8001000I-40000J0D01*
G01*
X13041000Y-8001000D02*
G75*
G02*
X13121000Y-8001000I40000J0D01*
G01*
X13121000Y-8255000D02*
G75*
G02*
X13041000Y-8255000I-40000J0D01*
G01*
X13041000Y-8255000D02*
G75*
G02*
X13121000Y-8255000I40000J0D01*
G01*
X13121000Y-8509000D02*
G75*
G02*
X13041000Y-8509000I-40000J0D01*
G01*
X13041000Y-8509000D02*
G75*
G02*
X13121000Y-8509000I40000J0D01*
G01*
X13121000Y-8763000D02*
G75*
G02*
X13041000Y-8763000I-40000J0D01*
G01*
X13041000Y-8763000D02*
G75*
G02*
X13121000Y-8763000I40000J0D01*
G01*
X13121000Y-9017000D02*
G75*
G02*
X13041000Y-9017000I-40000J0D01*
G01*
X13041000Y-9017000D02*
G75*
G02*
X13121000Y-9017000I40000J0D01*
G01*
X13121000Y-9271000D02*
G75*
G02*
X13041000Y-9271000I-40000J0D01*
G01*
X13041000Y-9271000D02*
G75*
G02*
X13121000Y-9271000I40000J0D01*
G01*
X13375000Y-7747000D02*
G75*
G02*
X13295000Y-7747000I-40000J0D01*
G01*
X13295000Y-7747000D02*
G75*
G02*
X13375000Y-7747000I40000J0D01*
G01*
X13375000Y-8001000D02*
G75*
G02*
X13295000Y-8001000I-40000J0D01*
G01*
X13295000Y-8001000D02*
G75*
G02*
X13375000Y-8001000I40000J0D01*
G01*
X13375000Y-9017000D02*
G75*
G02*
X13295000Y-9017000I-40000J0D01*
G01*
X13295000Y-9017000D02*
G75*
G02*
X13375000Y-9017000I40000J0D01*
G01*
X13375000Y-9271000D02*
G75*
G02*
X13295000Y-9271000I-40000J0D01*
G01*
X13295000Y-9271000D02*
G75*
G02*
X13375000Y-9271000I40000J0D01*
G01*
X13629000Y-7747000D02*
G75*
G02*
X13549000Y-7747000I-40000J0D01*
G01*
X13549000Y-7747000D02*
G75*
G02*
X13629000Y-7747000I40000J0D01*
G01*
X13629000Y-8001000D02*
G75*
G02*
X13549000Y-8001000I-40000J0D01*
G01*
X13549000Y-8001000D02*
G75*
G02*
X13629000Y-8001000I40000J0D01*
G01*
X13629000Y-9017000D02*
G75*
G02*
X13549000Y-9017000I-40000J0D01*
G01*
X13549000Y-9017000D02*
G75*
G02*
X13629000Y-9017000I40000J0D01*
G01*
X13629000Y-9271000D02*
G75*
G02*
X13549000Y-9271000I-40000J0D01*
G01*
X13549000Y-9271000D02*
G75*
G02*
X13629000Y-9271000I40000J0D01*
G01*
X13883000Y-7747000D02*
G75*
G02*
X13803000Y-7747000I-40000J0D01*
G01*
X13803000Y-7747000D02*
G75*
G02*
X13883000Y-7747000I40000J0D01*
G01*
X13883000Y-8001000D02*
G75*
G02*
X13803000Y-8001000I-40000J0D01*
G01*
X13803000Y-8001000D02*
G75*
G02*
X13883000Y-8001000I40000J0D01*
G01*
X13883000Y-8255000D02*
G75*
G02*
X13803000Y-8255000I-40000J0D01*
G01*
X13803000Y-8255000D02*
G75*
G02*
X13883000Y-8255000I40000J0D01*
G01*
X13883000Y-8509000D02*
G75*
G02*
X13803000Y-8509000I-40000J0D01*
G01*
X13803000Y-8509000D02*
G75*
G02*
X13883000Y-8509000I40000J0D01*
G01*
X13883000Y-8763000D02*
G75*
G02*
X13803000Y-8763000I-40000J0D01*
G01*
X13803000Y-8763000D02*
G75*
G02*
X13883000Y-8763000I40000J0D01*
G01*
X13883000Y-9017000D02*
G75*
G02*
X13803000Y-9017000I-40000J0D01*
G01*
X13803000Y-9017000D02*
G75*
G02*
X13883000Y-9017000I40000J0D01*
G01*
X13883000Y-9271000D02*
G75*
G02*
X13803000Y-9271000I-40000J0D01*
G01*
X13803000Y-9271000D02*
G75*
G02*
X13883000Y-9271000I40000J0D01*
G01*
X14137000Y-8001000D02*
G75*
G02*
X14057000Y-8001000I-40000J0D01*
G01*
X14057000Y-8001000D02*
G75*
G02*
X14137000Y-8001000I40000J0D01*
G01*
X14137000Y-8255000D02*
G75*
G02*
X14057000Y-8255000I-40000J0D01*
G01*
X14057000Y-8255000D02*
G75*
G02*
X14137000Y-8255000I40000J0D01*
G01*
X14137000Y-8509000D02*
G75*
G02*
X14057000Y-8509000I-40000J0D01*
G01*
X14057000Y-8509000D02*
G75*
G02*
X14137000Y-8509000I40000J0D01*
G01*
X14137000Y-8763000D02*
G75*
G02*
X14057000Y-8763000I-40000J0D01*
G01*
X14057000Y-8763000D02*
G75*
G02*
X14137000Y-8763000I40000J0D01*
G01*
X14137000Y-9017000D02*
G75*
G02*
X14057000Y-9017000I-40000J0D01*
G01*
X14057000Y-9017000D02*
G75*
G02*
X14137000Y-9017000I40000J0D01*
G01*
X12573000Y-9856000D02*
X12573000Y-9956000D01*
X12523000Y-9906000D02*
X12623000Y-9906000D01*
X12573000Y-10110000D02*
X12573000Y-10210000D01*
X12523000Y-10160000D02*
X12623000Y-10160000D01*
X12573000Y-10364000D02*
X12573000Y-10464000D01*
X12523000Y-10414000D02*
X12623000Y-10414000D01*
X12954000Y-9857500D02*
X12954000Y-9957500D01*
X12904000Y-9907500D02*
X13004000Y-9907500D01*
X12954000Y-10111500D02*
X12954000Y-10211500D01*
X12904000Y-10161500D02*
X13004000Y-10161500D01*
X12954000Y-10365500D02*
X12954000Y-10465500D01*
X12904000Y-10415500D02*
X13004000Y-10415500D01*
X13335000Y-9857500D02*
X13335000Y-9957500D01*
X13285000Y-9907500D02*
X13385000Y-9907500D01*
X13335000Y-10111500D02*
X13335000Y-10211500D01*
X13285000Y-10161500D02*
X13385000Y-10161500D01*
X13335000Y-10365500D02*
X13335000Y-10465500D01*
X13285000Y-10415500D02*
X13385000Y-10415500D01*
X13716000Y-9857500D02*
X13716000Y-9957500D01*
X13666000Y-9907500D02*
X13766000Y-9907500D01*
X13716000Y-10111500D02*
X13716000Y-10211500D01*
X13666000Y-10161500D02*
X13766000Y-10161500D01*
X13716000Y-10365500D02*
X13716000Y-10465500D01*
X13666000Y-10415500D02*
X13766000Y-10415500D01*
X14097000Y-9856000D02*
X14097000Y-9956000D01*
X14047000Y-9906000D02*
X14147000Y-9906000D01*
X14097000Y-10110000D02*
X14097000Y-10210000D01*
X14047000Y-10160000D02*
X14147000Y-10160000D01*
X14097000Y-10364000D02*
X14097000Y-10464000D01*
X14047000Y-10414000D02*
X14147000Y-10414000D01*
X14478000Y-9857500D02*
X14478000Y-9957500D01*
X14428000Y-9907500D02*
X14528000Y-9907500D01*
X14478000Y-10111500D02*
X14478000Y-10211500D01*
X14428000Y-10161500D02*
X14528000Y-10161500D01*
X14478000Y-10365500D02*
X14478000Y-10465500D01*
X14428000Y-10415500D02*
X14528000Y-10415500D01*
X14605000Y-7825500D02*
X14605000Y-7925500D01*
X14555000Y-7875500D02*
X14655000Y-7875500D01*
X14859000Y-7571500D02*
X14859000Y-7671500D01*
X14809000Y-7621500D02*
X14909000Y-7621500D01*
X14859000Y-7825500D02*
X14859000Y-7925500D01*
X14809000Y-7875500D02*
X14909000Y-7875500D01*
X14859000Y-8079500D02*
X14859000Y-8179500D01*
X14809000Y-8129500D02*
X14909000Y-8129500D01*
X14859000Y-8713000D02*
X14859000Y-8813000D01*
X14809000Y-8763000D02*
X14909000Y-8763000D01*
X14859000Y-8967000D02*
X14859000Y-9067000D01*
X14809000Y-9017000D02*
X14909000Y-9017000D01*
X14859000Y-9221000D02*
X14859000Y-9321000D01*
X14809000Y-9271000D02*
X14909000Y-9271000D01*
X14859000Y-9857500D02*
X14859000Y-9957500D01*
X14809000Y-9907500D02*
X14909000Y-9907500D01*
X14859000Y-10111500D02*
X14859000Y-10211500D01*
X14809000Y-10161500D02*
X14909000Y-10161500D01*
X14859000Y-10365500D02*
X14859000Y-10465500D01*
X14809000Y-10415500D02*
X14909000Y-10415500D01*
D11*
X10225277Y-10920984D02*
X10225277Y-10720984D01*
X10225277Y-10720984D02*
X10272896Y-10720984D01*
X10272896Y-10720984D02*
X10301467Y-10730508D01*
X10301467Y-10730508D02*
X10320515Y-10749555D01*
X10320515Y-10749555D02*
X10330039Y-10768603D01*
X10330039Y-10768603D02*
X10339563Y-10806698D01*
X10339563Y-10806698D02*
X10339563Y-10835270D01*
X10339563Y-10835270D02*
X10330039Y-10873365D01*
X10330039Y-10873365D02*
X10320515Y-10892412D01*
X10320515Y-10892412D02*
X10301467Y-10911460D01*
X10301467Y-10911460D02*
X10272896Y-10920984D01*
X10272896Y-10920984D02*
X10225277Y-10920984D01*
X10425277Y-10920984D02*
X10425277Y-10787650D01*
X10425277Y-10825746D02*
X10434801Y-10806698D01*
X10434801Y-10806698D02*
X10444324Y-10797174D01*
X10444324Y-10797174D02*
X10463372Y-10787650D01*
X10463372Y-10787650D02*
X10482420Y-10787650D01*
X10549086Y-10920984D02*
X10549086Y-10787650D01*
X10549086Y-10720984D02*
X10539563Y-10730508D01*
X10539563Y-10730508D02*
X10549086Y-10740031D01*
X10549086Y-10740031D02*
X10558610Y-10730508D01*
X10558610Y-10730508D02*
X10549086Y-10720984D01*
X10549086Y-10720984D02*
X10549086Y-10740031D01*
X10672896Y-10920984D02*
X10653848Y-10911460D01*
X10653848Y-10911460D02*
X10644324Y-10892412D01*
X10644324Y-10892412D02*
X10644324Y-10720984D01*
X10777658Y-10920984D02*
X10758610Y-10911460D01*
X10758610Y-10911460D02*
X10749086Y-10892412D01*
X10749086Y-10892412D02*
X10749086Y-10720984D01*
X11006229Y-10920984D02*
X11006229Y-10720984D01*
X11006229Y-10720984D02*
X11072896Y-10863841D01*
X11072896Y-10863841D02*
X11139563Y-10720984D01*
X11139563Y-10720984D02*
X11139563Y-10920984D01*
X11320515Y-10920984D02*
X11320515Y-10816222D01*
X11320515Y-10816222D02*
X11310991Y-10797174D01*
X11310991Y-10797174D02*
X11291943Y-10787650D01*
X11291943Y-10787650D02*
X11253848Y-10787650D01*
X11253848Y-10787650D02*
X11234801Y-10797174D01*
X11320515Y-10911460D02*
X11301467Y-10920984D01*
X11301467Y-10920984D02*
X11253848Y-10920984D01*
X11253848Y-10920984D02*
X11234801Y-10911460D01*
X11234801Y-10911460D02*
X11225277Y-10892412D01*
X11225277Y-10892412D02*
X11225277Y-10873365D01*
X11225277Y-10873365D02*
X11234801Y-10854317D01*
X11234801Y-10854317D02*
X11253848Y-10844793D01*
X11253848Y-10844793D02*
X11301467Y-10844793D01*
X11301467Y-10844793D02*
X11320515Y-10835270D01*
X11415753Y-10787650D02*
X11415753Y-10987650D01*
X11415753Y-10797174D02*
X11434801Y-10787650D01*
X11434801Y-10787650D02*
X11472896Y-10787650D01*
X11472896Y-10787650D02*
X11491943Y-10797174D01*
X11491943Y-10797174D02*
X11501467Y-10806698D01*
X11501467Y-10806698D02*
X11510991Y-10825746D01*
X11510991Y-10825746D02*
X11510991Y-10882889D01*
X11510991Y-10882889D02*
X11501467Y-10901936D01*
X11501467Y-10901936D02*
X11491943Y-10911460D01*
X11491943Y-10911460D02*
X11472896Y-10920984D01*
X11472896Y-10920984D02*
X11434801Y-10920984D01*
X11434801Y-10920984D02*
X11415753Y-10911460D01*
X11596705Y-10901936D02*
X11606229Y-10911460D01*
X11606229Y-10911460D02*
X11596705Y-10920984D01*
X11596705Y-10920984D02*
X11587182Y-10911460D01*
X11587182Y-10911460D02*
X11596705Y-10901936D01*
X11596705Y-10901936D02*
X11596705Y-10920984D01*
X11596705Y-10797174D02*
X11606229Y-10806698D01*
X11606229Y-10806698D02*
X11596705Y-10816222D01*
X11596705Y-10816222D02*
X11587182Y-10806698D01*
X11587182Y-10806698D02*
X11596705Y-10797174D01*
X11596705Y-10797174D02*
X11596705Y-10816222D01*
D10*
X9914500Y-11224500D02*
X9964500Y-11274500D01*
X9964500Y-11224500D02*
X9914500Y-11274500D01*
D11*
X10263372Y-11140984D02*
X10282420Y-11140984D01*
X10282420Y-11140984D02*
X10301467Y-11150508D01*
X10301467Y-11150508D02*
X10310991Y-11160031D01*
X10310991Y-11160031D02*
X10320515Y-11179079D01*
X10320515Y-11179079D02*
X10330039Y-11217174D01*
X10330039Y-11217174D02*
X10330039Y-11264793D01*
X10330039Y-11264793D02*
X10320515Y-11302888D01*
X10320515Y-11302888D02*
X10310991Y-11321936D01*
X10310991Y-11321936D02*
X10301467Y-11331460D01*
X10301467Y-11331460D02*
X10282420Y-11340984D01*
X10282420Y-11340984D02*
X10263372Y-11340984D01*
X10263372Y-11340984D02*
X10244324Y-11331460D01*
X10244324Y-11331460D02*
X10234801Y-11321936D01*
X10234801Y-11321936D02*
X10225277Y-11302888D01*
X10225277Y-11302888D02*
X10215753Y-11264793D01*
X10215753Y-11264793D02*
X10215753Y-11217174D01*
X10215753Y-11217174D02*
X10225277Y-11179079D01*
X10225277Y-11179079D02*
X10234801Y-11160031D01*
X10234801Y-11160031D02*
X10244324Y-11150508D01*
X10244324Y-11150508D02*
X10263372Y-11140984D01*
X10415753Y-11321936D02*
X10425277Y-11331460D01*
X10425277Y-11331460D02*
X10415753Y-11340984D01*
X10415753Y-11340984D02*
X10406229Y-11331460D01*
X10406229Y-11331460D02*
X10415753Y-11321936D01*
X10415753Y-11321936D02*
X10415753Y-11340984D01*
X10606229Y-11140984D02*
X10510991Y-11140984D01*
X10510991Y-11140984D02*
X10501467Y-11236222D01*
X10501467Y-11236222D02*
X10510991Y-11226698D01*
X10510991Y-11226698D02*
X10530039Y-11217174D01*
X10530039Y-11217174D02*
X10577658Y-11217174D01*
X10577658Y-11217174D02*
X10596705Y-11226698D01*
X10596705Y-11226698D02*
X10606229Y-11236222D01*
X10606229Y-11236222D02*
X10615753Y-11255269D01*
X10615753Y-11255269D02*
X10615753Y-11302888D01*
X10615753Y-11302888D02*
X10606229Y-11321936D01*
X10606229Y-11321936D02*
X10596705Y-11331460D01*
X10596705Y-11331460D02*
X10577658Y-11340984D01*
X10577658Y-11340984D02*
X10530039Y-11340984D01*
X10530039Y-11340984D02*
X10510991Y-11331460D01*
X10510991Y-11331460D02*
X10501467Y-11321936D01*
X10739563Y-11140984D02*
X10758610Y-11140984D01*
X10758610Y-11140984D02*
X10777658Y-11150508D01*
X10777658Y-11150508D02*
X10787182Y-11160031D01*
X10787182Y-11160031D02*
X10796705Y-11179079D01*
X10796705Y-11179079D02*
X10806229Y-11217174D01*
X10806229Y-11217174D02*
X10806229Y-11264793D01*
X10806229Y-11264793D02*
X10796705Y-11302888D01*
X10796705Y-11302888D02*
X10787182Y-11321936D01*
X10787182Y-11321936D02*
X10777658Y-11331460D01*
X10777658Y-11331460D02*
X10758610Y-11340984D01*
X10758610Y-11340984D02*
X10739563Y-11340984D01*
X10739563Y-11340984D02*
X10720515Y-11331460D01*
X10720515Y-11331460D02*
X10710991Y-11321936D01*
X10710991Y-11321936D02*
X10701467Y-11302888D01*
X10701467Y-11302888D02*
X10691944Y-11264793D01*
X10691944Y-11264793D02*
X10691944Y-11217174D01*
X10691944Y-11217174D02*
X10701467Y-11179079D01*
X10701467Y-11179079D02*
X10710991Y-11160031D01*
X10710991Y-11160031D02*
X10720515Y-11150508D01*
X10720515Y-11150508D02*
X10739563Y-11140984D01*
X10930039Y-11140984D02*
X10949086Y-11140984D01*
X10949086Y-11140984D02*
X10968134Y-11150508D01*
X10968134Y-11150508D02*
X10977658Y-11160031D01*
X10977658Y-11160031D02*
X10987182Y-11179079D01*
X10987182Y-11179079D02*
X10996705Y-11217174D01*
X10996705Y-11217174D02*
X10996705Y-11264793D01*
X10996705Y-11264793D02*
X10987182Y-11302888D01*
X10987182Y-11302888D02*
X10977658Y-11321936D01*
X10977658Y-11321936D02*
X10968134Y-11331460D01*
X10968134Y-11331460D02*
X10949086Y-11340984D01*
X10949086Y-11340984D02*
X10930039Y-11340984D01*
X10930039Y-11340984D02*
X10910991Y-11331460D01*
X10910991Y-11331460D02*
X10901467Y-11321936D01*
X10901467Y-11321936D02*
X10891944Y-11302888D01*
X10891944Y-11302888D02*
X10882420Y-11264793D01*
X10882420Y-11264793D02*
X10882420Y-11217174D01*
X10882420Y-11217174D02*
X10891944Y-11179079D01*
X10891944Y-11179079D02*
X10901467Y-11160031D01*
X10901467Y-11160031D02*
X10910991Y-11150508D01*
X10910991Y-11150508D02*
X10930039Y-11140984D01*
X11082420Y-11340984D02*
X11082420Y-11207650D01*
X11082420Y-11226698D02*
X11091944Y-11217174D01*
X11091944Y-11217174D02*
X11110991Y-11207650D01*
X11110991Y-11207650D02*
X11139563Y-11207650D01*
X11139563Y-11207650D02*
X11158610Y-11217174D01*
X11158610Y-11217174D02*
X11168134Y-11236222D01*
X11168134Y-11236222D02*
X11168134Y-11340984D01*
X11168134Y-11236222D02*
X11177658Y-11217174D01*
X11177658Y-11217174D02*
X11196705Y-11207650D01*
X11196705Y-11207650D02*
X11225277Y-11207650D01*
X11225277Y-11207650D02*
X11244324Y-11217174D01*
X11244324Y-11217174D02*
X11253848Y-11236222D01*
X11253848Y-11236222D02*
X11253848Y-11340984D01*
X11349086Y-11340984D02*
X11349086Y-11207650D01*
X11349086Y-11226698D02*
X11358610Y-11217174D01*
X11358610Y-11217174D02*
X11377658Y-11207650D01*
X11377658Y-11207650D02*
X11406229Y-11207650D01*
X11406229Y-11207650D02*
X11425277Y-11217174D01*
X11425277Y-11217174D02*
X11434801Y-11236222D01*
X11434801Y-11236222D02*
X11434801Y-11340984D01*
X11434801Y-11236222D02*
X11444324Y-11217174D01*
X11444324Y-11217174D02*
X11463372Y-11207650D01*
X11463372Y-11207650D02*
X11491943Y-11207650D01*
X11491943Y-11207650D02*
X11510991Y-11217174D01*
X11510991Y-11217174D02*
X11520515Y-11236222D01*
X11520515Y-11236222D02*
X11520515Y-11340984D01*
X11910991Y-11131460D02*
X11739563Y-11388603D01*
X12168134Y-11140984D02*
X12187182Y-11140984D01*
X12187182Y-11140984D02*
X12206229Y-11150508D01*
X12206229Y-11150508D02*
X12215753Y-11160031D01*
X12215753Y-11160031D02*
X12225277Y-11179079D01*
X12225277Y-11179079D02*
X12234801Y-11217174D01*
X12234801Y-11217174D02*
X12234801Y-11264793D01*
X12234801Y-11264793D02*
X12225277Y-11302888D01*
X12225277Y-11302888D02*
X12215753Y-11321936D01*
X12215753Y-11321936D02*
X12206229Y-11331460D01*
X12206229Y-11331460D02*
X12187182Y-11340984D01*
X12187182Y-11340984D02*
X12168134Y-11340984D01*
X12168134Y-11340984D02*
X12149086Y-11331460D01*
X12149086Y-11331460D02*
X12139563Y-11321936D01*
X12139563Y-11321936D02*
X12130039Y-11302888D01*
X12130039Y-11302888D02*
X12120515Y-11264793D01*
X12120515Y-11264793D02*
X12120515Y-11217174D01*
X12120515Y-11217174D02*
X12130039Y-11179079D01*
X12130039Y-11179079D02*
X12139563Y-11160031D01*
X12139563Y-11160031D02*
X12149086Y-11150508D01*
X12149086Y-11150508D02*
X12168134Y-11140984D01*
X12320515Y-11321936D02*
X12330039Y-11331460D01*
X12330039Y-11331460D02*
X12320515Y-11340984D01*
X12320515Y-11340984D02*
X12310991Y-11331460D01*
X12310991Y-11331460D02*
X12320515Y-11321936D01*
X12320515Y-11321936D02*
X12320515Y-11340984D01*
X12453848Y-11140984D02*
X12472896Y-11140984D01*
X12472896Y-11140984D02*
X12491944Y-11150508D01*
X12491944Y-11150508D02*
X12501467Y-11160031D01*
X12501467Y-11160031D02*
X12510991Y-11179079D01*
X12510991Y-11179079D02*
X12520515Y-11217174D01*
X12520515Y-11217174D02*
X12520515Y-11264793D01*
X12520515Y-11264793D02*
X12510991Y-11302888D01*
X12510991Y-11302888D02*
X12501467Y-11321936D01*
X12501467Y-11321936D02*
X12491944Y-11331460D01*
X12491944Y-11331460D02*
X12472896Y-11340984D01*
X12472896Y-11340984D02*
X12453848Y-11340984D01*
X12453848Y-11340984D02*
X12434801Y-11331460D01*
X12434801Y-11331460D02*
X12425277Y-11321936D01*
X12425277Y-11321936D02*
X12415753Y-11302888D01*
X12415753Y-11302888D02*
X12406229Y-11264793D01*
X12406229Y-11264793D02*
X12406229Y-11217174D01*
X12406229Y-11217174D02*
X12415753Y-11179079D01*
X12415753Y-11179079D02*
X12425277Y-11160031D01*
X12425277Y-11160031D02*
X12434801Y-11150508D01*
X12434801Y-11150508D02*
X12453848Y-11140984D01*
X12710991Y-11340984D02*
X12596706Y-11340984D01*
X12653848Y-11340984D02*
X12653848Y-11140984D01*
X12653848Y-11140984D02*
X12634801Y-11169555D01*
X12634801Y-11169555D02*
X12615753Y-11188603D01*
X12615753Y-11188603D02*
X12596706Y-11198127D01*
X12806229Y-11340984D02*
X12844325Y-11340984D01*
X12844325Y-11340984D02*
X12863372Y-11331460D01*
X12863372Y-11331460D02*
X12872896Y-11321936D01*
X12872896Y-11321936D02*
X12891944Y-11293365D01*
X12891944Y-11293365D02*
X12901467Y-11255269D01*
X12901467Y-11255269D02*
X12901467Y-11179079D01*
X12901467Y-11179079D02*
X12891944Y-11160031D01*
X12891944Y-11160031D02*
X12882420Y-11150508D01*
X12882420Y-11150508D02*
X12863372Y-11140984D01*
X12863372Y-11140984D02*
X12825277Y-11140984D01*
X12825277Y-11140984D02*
X12806229Y-11150508D01*
X12806229Y-11150508D02*
X12796706Y-11160031D01*
X12796706Y-11160031D02*
X12787182Y-11179079D01*
X12787182Y-11179079D02*
X12787182Y-11226698D01*
X12787182Y-11226698D02*
X12796706Y-11245746D01*
X12796706Y-11245746D02*
X12806229Y-11255269D01*
X12806229Y-11255269D02*
X12825277Y-11264793D01*
X12825277Y-11264793D02*
X12863372Y-11264793D01*
X12863372Y-11264793D02*
X12882420Y-11255269D01*
X12882420Y-11255269D02*
X12891944Y-11245746D01*
X12891944Y-11245746D02*
X12901467Y-11226698D01*
X12968134Y-11140984D02*
X13101467Y-11140984D01*
X13101467Y-11140984D02*
X13015753Y-11340984D01*
X13168134Y-11140984D02*
X13168134Y-11179079D01*
X13244325Y-11140984D02*
X13244325Y-11179079D01*
X13539563Y-11417174D02*
X13530039Y-11407650D01*
X13530039Y-11407650D02*
X13510991Y-11379079D01*
X13510991Y-11379079D02*
X13501468Y-11360031D01*
X13501468Y-11360031D02*
X13491944Y-11331460D01*
X13491944Y-11331460D02*
X13482420Y-11283841D01*
X13482420Y-11283841D02*
X13482420Y-11245746D01*
X13482420Y-11245746D02*
X13491944Y-11198127D01*
X13491944Y-11198127D02*
X13501468Y-11169555D01*
X13501468Y-11169555D02*
X13510991Y-11150508D01*
X13510991Y-11150508D02*
X13530039Y-11121936D01*
X13530039Y-11121936D02*
X13539563Y-11112412D01*
X13606229Y-11160031D02*
X13615753Y-11150508D01*
X13615753Y-11150508D02*
X13634801Y-11140984D01*
X13634801Y-11140984D02*
X13682420Y-11140984D01*
X13682420Y-11140984D02*
X13701468Y-11150508D01*
X13701468Y-11150508D02*
X13710991Y-11160031D01*
X13710991Y-11160031D02*
X13720515Y-11179079D01*
X13720515Y-11179079D02*
X13720515Y-11198127D01*
X13720515Y-11198127D02*
X13710991Y-11226698D01*
X13710991Y-11226698D02*
X13596706Y-11340984D01*
X13596706Y-11340984D02*
X13720515Y-11340984D01*
X13958610Y-11340984D02*
X13958610Y-11140984D01*
X14044325Y-11340984D02*
X14044325Y-11236222D01*
X14044325Y-11236222D02*
X14034801Y-11217174D01*
X14034801Y-11217174D02*
X14015753Y-11207650D01*
X14015753Y-11207650D02*
X13987182Y-11207650D01*
X13987182Y-11207650D02*
X13968134Y-11217174D01*
X13968134Y-11217174D02*
X13958610Y-11226698D01*
X14168134Y-11340984D02*
X14149087Y-11331460D01*
X14149087Y-11331460D02*
X14139563Y-11321936D01*
X14139563Y-11321936D02*
X14130039Y-11302888D01*
X14130039Y-11302888D02*
X14130039Y-11245746D01*
X14130039Y-11245746D02*
X14139563Y-11226698D01*
X14139563Y-11226698D02*
X14149087Y-11217174D01*
X14149087Y-11217174D02*
X14168134Y-11207650D01*
X14168134Y-11207650D02*
X14196706Y-11207650D01*
X14196706Y-11207650D02*
X14215753Y-11217174D01*
X14215753Y-11217174D02*
X14225277Y-11226698D01*
X14225277Y-11226698D02*
X14234801Y-11245746D01*
X14234801Y-11245746D02*
X14234801Y-11302888D01*
X14234801Y-11302888D02*
X14225277Y-11321936D01*
X14225277Y-11321936D02*
X14215753Y-11331460D01*
X14215753Y-11331460D02*
X14196706Y-11340984D01*
X14196706Y-11340984D02*
X14168134Y-11340984D01*
X14349087Y-11340984D02*
X14330039Y-11331460D01*
X14330039Y-11331460D02*
X14320515Y-11312412D01*
X14320515Y-11312412D02*
X14320515Y-11140984D01*
X14501468Y-11331460D02*
X14482420Y-11340984D01*
X14482420Y-11340984D02*
X14444325Y-11340984D01*
X14444325Y-11340984D02*
X14425277Y-11331460D01*
X14425277Y-11331460D02*
X14415753Y-11312412D01*
X14415753Y-11312412D02*
X14415753Y-11236222D01*
X14415753Y-11236222D02*
X14425277Y-11217174D01*
X14425277Y-11217174D02*
X14444325Y-11207650D01*
X14444325Y-11207650D02*
X14482420Y-11207650D01*
X14482420Y-11207650D02*
X14501468Y-11217174D01*
X14501468Y-11217174D02*
X14510991Y-11236222D01*
X14510991Y-11236222D02*
X14510991Y-11255269D01*
X14510991Y-11255269D02*
X14415753Y-11274317D01*
X14587182Y-11331460D02*
X14606230Y-11340984D01*
X14606230Y-11340984D02*
X14644325Y-11340984D01*
X14644325Y-11340984D02*
X14663372Y-11331460D01*
X14663372Y-11331460D02*
X14672896Y-11312412D01*
X14672896Y-11312412D02*
X14672896Y-11302888D01*
X14672896Y-11302888D02*
X14663372Y-11283841D01*
X14663372Y-11283841D02*
X14644325Y-11274317D01*
X14644325Y-11274317D02*
X14615753Y-11274317D01*
X14615753Y-11274317D02*
X14596706Y-11264793D01*
X14596706Y-11264793D02*
X14587182Y-11245746D01*
X14587182Y-11245746D02*
X14587182Y-11236222D01*
X14587182Y-11236222D02*
X14596706Y-11217174D01*
X14596706Y-11217174D02*
X14615753Y-11207650D01*
X14615753Y-11207650D02*
X14644325Y-11207650D01*
X14644325Y-11207650D02*
X14663372Y-11217174D01*
X14739563Y-11417174D02*
X14749087Y-11407650D01*
X14749087Y-11407650D02*
X14768134Y-11379079D01*
X14768134Y-11379079D02*
X14777658Y-11360031D01*
X14777658Y-11360031D02*
X14787182Y-11331460D01*
X14787182Y-11331460D02*
X14796706Y-11283841D01*
X14796706Y-11283841D02*
X14796706Y-11245746D01*
X14796706Y-11245746D02*
X14787182Y-11198127D01*
X14787182Y-11198127D02*
X14777658Y-11169555D01*
X14777658Y-11169555D02*
X14768134Y-11150508D01*
X14768134Y-11150508D02*
X14749087Y-11121936D01*
X14749087Y-11121936D02*
X14739563Y-11112412D01*
D10*
X9964500Y-11513500D02*
G75*
G02*
X9884500Y-11513500I-40000J0D01*
G01*
X9884500Y-11513500D02*
G75*
G02*
X9964500Y-11513500I40000J0D01*
G01*
D11*
X10263372Y-11404984D02*
X10282420Y-11404984D01*
X10282420Y-11404984D02*
X10301467Y-11414508D01*
X10301467Y-11414508D02*
X10310991Y-11424031D01*
X10310991Y-11424031D02*
X10320515Y-11443079D01*
X10320515Y-11443079D02*
X10330039Y-11481174D01*
X10330039Y-11481174D02*
X10330039Y-11528793D01*
X10330039Y-11528793D02*
X10320515Y-11566888D01*
X10320515Y-11566888D02*
X10310991Y-11585936D01*
X10310991Y-11585936D02*
X10301467Y-11595460D01*
X10301467Y-11595460D02*
X10282420Y-11604984D01*
X10282420Y-11604984D02*
X10263372Y-11604984D01*
X10263372Y-11604984D02*
X10244324Y-11595460D01*
X10244324Y-11595460D02*
X10234801Y-11585936D01*
X10234801Y-11585936D02*
X10225277Y-11566888D01*
X10225277Y-11566888D02*
X10215753Y-11528793D01*
X10215753Y-11528793D02*
X10215753Y-11481174D01*
X10215753Y-11481174D02*
X10225277Y-11443079D01*
X10225277Y-11443079D02*
X10234801Y-11424031D01*
X10234801Y-11424031D02*
X10244324Y-11414508D01*
X10244324Y-11414508D02*
X10263372Y-11404984D01*
X10415753Y-11585936D02*
X10425277Y-11595460D01*
X10425277Y-11595460D02*
X10415753Y-11604984D01*
X10415753Y-11604984D02*
X10406229Y-11595460D01*
X10406229Y-11595460D02*
X10415753Y-11585936D01*
X10415753Y-11585936D02*
X10415753Y-11604984D01*
X10539563Y-11490698D02*
X10520515Y-11481174D01*
X10520515Y-11481174D02*
X10510991Y-11471650D01*
X10510991Y-11471650D02*
X10501467Y-11452603D01*
X10501467Y-11452603D02*
X10501467Y-11443079D01*
X10501467Y-11443079D02*
X10510991Y-11424031D01*
X10510991Y-11424031D02*
X10520515Y-11414508D01*
X10520515Y-11414508D02*
X10539563Y-11404984D01*
X10539563Y-11404984D02*
X10577658Y-11404984D01*
X10577658Y-11404984D02*
X10596705Y-11414508D01*
X10596705Y-11414508D02*
X10606229Y-11424031D01*
X10606229Y-11424031D02*
X10615753Y-11443079D01*
X10615753Y-11443079D02*
X10615753Y-11452603D01*
X10615753Y-11452603D02*
X10606229Y-11471650D01*
X10606229Y-11471650D02*
X10596705Y-11481174D01*
X10596705Y-11481174D02*
X10577658Y-11490698D01*
X10577658Y-11490698D02*
X10539563Y-11490698D01*
X10539563Y-11490698D02*
X10520515Y-11500222D01*
X10520515Y-11500222D02*
X10510991Y-11509746D01*
X10510991Y-11509746D02*
X10501467Y-11528793D01*
X10501467Y-11528793D02*
X10501467Y-11566888D01*
X10501467Y-11566888D02*
X10510991Y-11585936D01*
X10510991Y-11585936D02*
X10520515Y-11595460D01*
X10520515Y-11595460D02*
X10539563Y-11604984D01*
X10539563Y-11604984D02*
X10577658Y-11604984D01*
X10577658Y-11604984D02*
X10596705Y-11595460D01*
X10596705Y-11595460D02*
X10606229Y-11585936D01*
X10606229Y-11585936D02*
X10615753Y-11566888D01*
X10615753Y-11566888D02*
X10615753Y-11528793D01*
X10615753Y-11528793D02*
X10606229Y-11509746D01*
X10606229Y-11509746D02*
X10596705Y-11500222D01*
X10596705Y-11500222D02*
X10577658Y-11490698D01*
X10739563Y-11404984D02*
X10758610Y-11404984D01*
X10758610Y-11404984D02*
X10777658Y-11414508D01*
X10777658Y-11414508D02*
X10787182Y-11424031D01*
X10787182Y-11424031D02*
X10796705Y-11443079D01*
X10796705Y-11443079D02*
X10806229Y-11481174D01*
X10806229Y-11481174D02*
X10806229Y-11528793D01*
X10806229Y-11528793D02*
X10796705Y-11566888D01*
X10796705Y-11566888D02*
X10787182Y-11585936D01*
X10787182Y-11585936D02*
X10777658Y-11595460D01*
X10777658Y-11595460D02*
X10758610Y-11604984D01*
X10758610Y-11604984D02*
X10739563Y-11604984D01*
X10739563Y-11604984D02*
X10720515Y-11595460D01*
X10720515Y-11595460D02*
X10710991Y-11585936D01*
X10710991Y-11585936D02*
X10701467Y-11566888D01*
X10701467Y-11566888D02*
X10691944Y-11528793D01*
X10691944Y-11528793D02*
X10691944Y-11481174D01*
X10691944Y-11481174D02*
X10701467Y-11443079D01*
X10701467Y-11443079D02*
X10710991Y-11424031D01*
X10710991Y-11424031D02*
X10720515Y-11414508D01*
X10720515Y-11414508D02*
X10739563Y-11404984D01*
X10930039Y-11404984D02*
X10949086Y-11404984D01*
X10949086Y-11404984D02*
X10968134Y-11414508D01*
X10968134Y-11414508D02*
X10977658Y-11424031D01*
X10977658Y-11424031D02*
X10987182Y-11443079D01*
X10987182Y-11443079D02*
X10996705Y-11481174D01*
X10996705Y-11481174D02*
X10996705Y-11528793D01*
X10996705Y-11528793D02*
X10987182Y-11566888D01*
X10987182Y-11566888D02*
X10977658Y-11585936D01*
X10977658Y-11585936D02*
X10968134Y-11595460D01*
X10968134Y-11595460D02*
X10949086Y-11604984D01*
X10949086Y-11604984D02*
X10930039Y-11604984D01*
X10930039Y-11604984D02*
X10910991Y-11595460D01*
X10910991Y-11595460D02*
X10901467Y-11585936D01*
X10901467Y-11585936D02*
X10891944Y-11566888D01*
X10891944Y-11566888D02*
X10882420Y-11528793D01*
X10882420Y-11528793D02*
X10882420Y-11481174D01*
X10882420Y-11481174D02*
X10891944Y-11443079D01*
X10891944Y-11443079D02*
X10901467Y-11424031D01*
X10901467Y-11424031D02*
X10910991Y-11414508D01*
X10910991Y-11414508D02*
X10930039Y-11404984D01*
X11082420Y-11604984D02*
X11082420Y-11471650D01*
X11082420Y-11490698D02*
X11091944Y-11481174D01*
X11091944Y-11481174D02*
X11110991Y-11471650D01*
X11110991Y-11471650D02*
X11139563Y-11471650D01*
X11139563Y-11471650D02*
X11158610Y-11481174D01*
X11158610Y-11481174D02*
X11168134Y-11500222D01*
X11168134Y-11500222D02*
X11168134Y-11604984D01*
X11168134Y-11500222D02*
X11177658Y-11481174D01*
X11177658Y-11481174D02*
X11196705Y-11471650D01*
X11196705Y-11471650D02*
X11225277Y-11471650D01*
X11225277Y-11471650D02*
X11244324Y-11481174D01*
X11244324Y-11481174D02*
X11253848Y-11500222D01*
X11253848Y-11500222D02*
X11253848Y-11604984D01*
X11349086Y-11604984D02*
X11349086Y-11471650D01*
X11349086Y-11490698D02*
X11358610Y-11481174D01*
X11358610Y-11481174D02*
X11377658Y-11471650D01*
X11377658Y-11471650D02*
X11406229Y-11471650D01*
X11406229Y-11471650D02*
X11425277Y-11481174D01*
X11425277Y-11481174D02*
X11434801Y-11500222D01*
X11434801Y-11500222D02*
X11434801Y-11604984D01*
X11434801Y-11500222D02*
X11444324Y-11481174D01*
X11444324Y-11481174D02*
X11463372Y-11471650D01*
X11463372Y-11471650D02*
X11491943Y-11471650D01*
X11491943Y-11471650D02*
X11510991Y-11481174D01*
X11510991Y-11481174D02*
X11520515Y-11500222D01*
X11520515Y-11500222D02*
X11520515Y-11604984D01*
X11910991Y-11395460D02*
X11739563Y-11652603D01*
X12168134Y-11404984D02*
X12187182Y-11404984D01*
X12187182Y-11404984D02*
X12206229Y-11414508D01*
X12206229Y-11414508D02*
X12215753Y-11424031D01*
X12215753Y-11424031D02*
X12225277Y-11443079D01*
X12225277Y-11443079D02*
X12234801Y-11481174D01*
X12234801Y-11481174D02*
X12234801Y-11528793D01*
X12234801Y-11528793D02*
X12225277Y-11566888D01*
X12225277Y-11566888D02*
X12215753Y-11585936D01*
X12215753Y-11585936D02*
X12206229Y-11595460D01*
X12206229Y-11595460D02*
X12187182Y-11604984D01*
X12187182Y-11604984D02*
X12168134Y-11604984D01*
X12168134Y-11604984D02*
X12149086Y-11595460D01*
X12149086Y-11595460D02*
X12139563Y-11585936D01*
X12139563Y-11585936D02*
X12130039Y-11566888D01*
X12130039Y-11566888D02*
X12120515Y-11528793D01*
X12120515Y-11528793D02*
X12120515Y-11481174D01*
X12120515Y-11481174D02*
X12130039Y-11443079D01*
X12130039Y-11443079D02*
X12139563Y-11424031D01*
X12139563Y-11424031D02*
X12149086Y-11414508D01*
X12149086Y-11414508D02*
X12168134Y-11404984D01*
X12320515Y-11585936D02*
X12330039Y-11595460D01*
X12330039Y-11595460D02*
X12320515Y-11604984D01*
X12320515Y-11604984D02*
X12310991Y-11595460D01*
X12310991Y-11595460D02*
X12320515Y-11585936D01*
X12320515Y-11585936D02*
X12320515Y-11604984D01*
X12453848Y-11404984D02*
X12472896Y-11404984D01*
X12472896Y-11404984D02*
X12491944Y-11414508D01*
X12491944Y-11414508D02*
X12501467Y-11424031D01*
X12501467Y-11424031D02*
X12510991Y-11443079D01*
X12510991Y-11443079D02*
X12520515Y-11481174D01*
X12520515Y-11481174D02*
X12520515Y-11528793D01*
X12520515Y-11528793D02*
X12510991Y-11566888D01*
X12510991Y-11566888D02*
X12501467Y-11585936D01*
X12501467Y-11585936D02*
X12491944Y-11595460D01*
X12491944Y-11595460D02*
X12472896Y-11604984D01*
X12472896Y-11604984D02*
X12453848Y-11604984D01*
X12453848Y-11604984D02*
X12434801Y-11595460D01*
X12434801Y-11595460D02*
X12425277Y-11585936D01*
X12425277Y-11585936D02*
X12415753Y-11566888D01*
X12415753Y-11566888D02*
X12406229Y-11528793D01*
X12406229Y-11528793D02*
X12406229Y-11481174D01*
X12406229Y-11481174D02*
X12415753Y-11443079D01*
X12415753Y-11443079D02*
X12425277Y-11424031D01*
X12425277Y-11424031D02*
X12434801Y-11414508D01*
X12434801Y-11414508D02*
X12453848Y-11404984D01*
X12587182Y-11404984D02*
X12710991Y-11404984D01*
X12710991Y-11404984D02*
X12644325Y-11481174D01*
X12644325Y-11481174D02*
X12672896Y-11481174D01*
X12672896Y-11481174D02*
X12691944Y-11490698D01*
X12691944Y-11490698D02*
X12701467Y-11500222D01*
X12701467Y-11500222D02*
X12710991Y-11519269D01*
X12710991Y-11519269D02*
X12710991Y-11566888D01*
X12710991Y-11566888D02*
X12701467Y-11585936D01*
X12701467Y-11585936D02*
X12691944Y-11595460D01*
X12691944Y-11595460D02*
X12672896Y-11604984D01*
X12672896Y-11604984D02*
X12615753Y-11604984D01*
X12615753Y-11604984D02*
X12596706Y-11595460D01*
X12596706Y-11595460D02*
X12587182Y-11585936D01*
X12901467Y-11604984D02*
X12787182Y-11604984D01*
X12844325Y-11604984D02*
X12844325Y-11404984D01*
X12844325Y-11404984D02*
X12825277Y-11433555D01*
X12825277Y-11433555D02*
X12806229Y-11452603D01*
X12806229Y-11452603D02*
X12787182Y-11462127D01*
X13082420Y-11404984D02*
X12987182Y-11404984D01*
X12987182Y-11404984D02*
X12977658Y-11500222D01*
X12977658Y-11500222D02*
X12987182Y-11490698D01*
X12987182Y-11490698D02*
X13006229Y-11481174D01*
X13006229Y-11481174D02*
X13053848Y-11481174D01*
X13053848Y-11481174D02*
X13072896Y-11490698D01*
X13072896Y-11490698D02*
X13082420Y-11500222D01*
X13082420Y-11500222D02*
X13091944Y-11519269D01*
X13091944Y-11519269D02*
X13091944Y-11566888D01*
X13091944Y-11566888D02*
X13082420Y-11585936D01*
X13082420Y-11585936D02*
X13072896Y-11595460D01*
X13072896Y-11595460D02*
X13053848Y-11604984D01*
X13053848Y-11604984D02*
X13006229Y-11604984D01*
X13006229Y-11604984D02*
X12987182Y-11595460D01*
X12987182Y-11595460D02*
X12977658Y-11585936D01*
X13168134Y-11404984D02*
X13168134Y-11443079D01*
X13244325Y-11404984D02*
X13244325Y-11443079D01*
X13539563Y-11681174D02*
X13530039Y-11671650D01*
X13530039Y-11671650D02*
X13510991Y-11643079D01*
X13510991Y-11643079D02*
X13501468Y-11624031D01*
X13501468Y-11624031D02*
X13491944Y-11595460D01*
X13491944Y-11595460D02*
X13482420Y-11547841D01*
X13482420Y-11547841D02*
X13482420Y-11509746D01*
X13482420Y-11509746D02*
X13491944Y-11462127D01*
X13491944Y-11462127D02*
X13501468Y-11433555D01*
X13501468Y-11433555D02*
X13510991Y-11414508D01*
X13510991Y-11414508D02*
X13530039Y-11385936D01*
X13530039Y-11385936D02*
X13539563Y-11376412D01*
X13720515Y-11604984D02*
X13606229Y-11604984D01*
X13663372Y-11604984D02*
X13663372Y-11404984D01*
X13663372Y-11404984D02*
X13644325Y-11433555D01*
X13644325Y-11433555D02*
X13625277Y-11452603D01*
X13625277Y-11452603D02*
X13606229Y-11462127D01*
X13844325Y-11404984D02*
X13863372Y-11404984D01*
X13863372Y-11404984D02*
X13882420Y-11414508D01*
X13882420Y-11414508D02*
X13891944Y-11424031D01*
X13891944Y-11424031D02*
X13901468Y-11443079D01*
X13901468Y-11443079D02*
X13910991Y-11481174D01*
X13910991Y-11481174D02*
X13910991Y-11528793D01*
X13910991Y-11528793D02*
X13901468Y-11566888D01*
X13901468Y-11566888D02*
X13891944Y-11585936D01*
X13891944Y-11585936D02*
X13882420Y-11595460D01*
X13882420Y-11595460D02*
X13863372Y-11604984D01*
X13863372Y-11604984D02*
X13844325Y-11604984D01*
X13844325Y-11604984D02*
X13825277Y-11595460D01*
X13825277Y-11595460D02*
X13815753Y-11585936D01*
X13815753Y-11585936D02*
X13806229Y-11566888D01*
X13806229Y-11566888D02*
X13796706Y-11528793D01*
X13796706Y-11528793D02*
X13796706Y-11481174D01*
X13796706Y-11481174D02*
X13806229Y-11443079D01*
X13806229Y-11443079D02*
X13815753Y-11424031D01*
X13815753Y-11424031D02*
X13825277Y-11414508D01*
X13825277Y-11414508D02*
X13844325Y-11404984D01*
X14082420Y-11471650D02*
X14082420Y-11604984D01*
X14034801Y-11395460D02*
X13987182Y-11538317D01*
X13987182Y-11538317D02*
X14110991Y-11538317D01*
X14339563Y-11604984D02*
X14339563Y-11404984D01*
X14425277Y-11604984D02*
X14425277Y-11500222D01*
X14425277Y-11500222D02*
X14415753Y-11481174D01*
X14415753Y-11481174D02*
X14396706Y-11471650D01*
X14396706Y-11471650D02*
X14368134Y-11471650D01*
X14368134Y-11471650D02*
X14349087Y-11481174D01*
X14349087Y-11481174D02*
X14339563Y-11490698D01*
X14549087Y-11604984D02*
X14530039Y-11595460D01*
X14530039Y-11595460D02*
X14520515Y-11585936D01*
X14520515Y-11585936D02*
X14510991Y-11566888D01*
X14510991Y-11566888D02*
X14510991Y-11509746D01*
X14510991Y-11509746D02*
X14520515Y-11490698D01*
X14520515Y-11490698D02*
X14530039Y-11481174D01*
X14530039Y-11481174D02*
X14549087Y-11471650D01*
X14549087Y-11471650D02*
X14577658Y-11471650D01*
X14577658Y-11471650D02*
X14596706Y-11481174D01*
X14596706Y-11481174D02*
X14606230Y-11490698D01*
X14606230Y-11490698D02*
X14615753Y-11509746D01*
X14615753Y-11509746D02*
X14615753Y-11566888D01*
X14615753Y-11566888D02*
X14606230Y-11585936D01*
X14606230Y-11585936D02*
X14596706Y-11595460D01*
X14596706Y-11595460D02*
X14577658Y-11604984D01*
X14577658Y-11604984D02*
X14549087Y-11604984D01*
X14730039Y-11604984D02*
X14710991Y-11595460D01*
X14710991Y-11595460D02*
X14701468Y-11576412D01*
X14701468Y-11576412D02*
X14701468Y-11404984D01*
X14882420Y-11595460D02*
X14863372Y-11604984D01*
X14863372Y-11604984D02*
X14825277Y-11604984D01*
X14825277Y-11604984D02*
X14806230Y-11595460D01*
X14806230Y-11595460D02*
X14796706Y-11576412D01*
X14796706Y-11576412D02*
X14796706Y-11500222D01*
X14796706Y-11500222D02*
X14806230Y-11481174D01*
X14806230Y-11481174D02*
X14825277Y-11471650D01*
X14825277Y-11471650D02*
X14863372Y-11471650D01*
X14863372Y-11471650D02*
X14882420Y-11481174D01*
X14882420Y-11481174D02*
X14891944Y-11500222D01*
X14891944Y-11500222D02*
X14891944Y-11519269D01*
X14891944Y-11519269D02*
X14796706Y-11538317D01*
X14968134Y-11595460D02*
X14987182Y-11604984D01*
X14987182Y-11604984D02*
X15025277Y-11604984D01*
X15025277Y-11604984D02*
X15044325Y-11595460D01*
X15044325Y-11595460D02*
X15053849Y-11576412D01*
X15053849Y-11576412D02*
X15053849Y-11566888D01*
X15053849Y-11566888D02*
X15044325Y-11547841D01*
X15044325Y-11547841D02*
X15025277Y-11538317D01*
X15025277Y-11538317D02*
X14996706Y-11538317D01*
X14996706Y-11538317D02*
X14977658Y-11528793D01*
X14977658Y-11528793D02*
X14968134Y-11509746D01*
X14968134Y-11509746D02*
X14968134Y-11500222D01*
X14968134Y-11500222D02*
X14977658Y-11481174D01*
X14977658Y-11481174D02*
X14996706Y-11471650D01*
X14996706Y-11471650D02*
X15025277Y-11471650D01*
X15025277Y-11471650D02*
X15044325Y-11481174D01*
X15120515Y-11681174D02*
X15130039Y-11671650D01*
X15130039Y-11671650D02*
X15149087Y-11643079D01*
X15149087Y-11643079D02*
X15158611Y-11624031D01*
X15158611Y-11624031D02*
X15168134Y-11595460D01*
X15168134Y-11595460D02*
X15177658Y-11547841D01*
X15177658Y-11547841D02*
X15177658Y-11509746D01*
X15177658Y-11509746D02*
X15168134Y-11462127D01*
X15168134Y-11462127D02*
X15158611Y-11433555D01*
X15158611Y-11433555D02*
X15149087Y-11414508D01*
X15149087Y-11414508D02*
X15130039Y-11385936D01*
X15130039Y-11385936D02*
X15120515Y-11376412D01*
D10*
X9914500Y-11727500D02*
X9914500Y-11827500D01*
X9864500Y-11777500D02*
X9964500Y-11777500D01*
D11*
X10330039Y-11868984D02*
X10215753Y-11868984D01*
X10272896Y-11868984D02*
X10272896Y-11668984D01*
X10272896Y-11668984D02*
X10253848Y-11697555D01*
X10253848Y-11697555D02*
X10234801Y-11716603D01*
X10234801Y-11716603D02*
X10215753Y-11726127D01*
X10415753Y-11849936D02*
X10425277Y-11859460D01*
X10425277Y-11859460D02*
X10415753Y-11868984D01*
X10415753Y-11868984D02*
X10406229Y-11859460D01*
X10406229Y-11859460D02*
X10415753Y-11849936D01*
X10415753Y-11849936D02*
X10415753Y-11868984D01*
X10549086Y-11668984D02*
X10568134Y-11668984D01*
X10568134Y-11668984D02*
X10587182Y-11678508D01*
X10587182Y-11678508D02*
X10596705Y-11688031D01*
X10596705Y-11688031D02*
X10606229Y-11707079D01*
X10606229Y-11707079D02*
X10615753Y-11745174D01*
X10615753Y-11745174D02*
X10615753Y-11792793D01*
X10615753Y-11792793D02*
X10606229Y-11830888D01*
X10606229Y-11830888D02*
X10596705Y-11849936D01*
X10596705Y-11849936D02*
X10587182Y-11859460D01*
X10587182Y-11859460D02*
X10568134Y-11868984D01*
X10568134Y-11868984D02*
X10549086Y-11868984D01*
X10549086Y-11868984D02*
X10530039Y-11859460D01*
X10530039Y-11859460D02*
X10520515Y-11849936D01*
X10520515Y-11849936D02*
X10510991Y-11830888D01*
X10510991Y-11830888D02*
X10501467Y-11792793D01*
X10501467Y-11792793D02*
X10501467Y-11745174D01*
X10501467Y-11745174D02*
X10510991Y-11707079D01*
X10510991Y-11707079D02*
X10520515Y-11688031D01*
X10520515Y-11688031D02*
X10530039Y-11678508D01*
X10530039Y-11678508D02*
X10549086Y-11668984D01*
X10739563Y-11668984D02*
X10758610Y-11668984D01*
X10758610Y-11668984D02*
X10777658Y-11678508D01*
X10777658Y-11678508D02*
X10787182Y-11688031D01*
X10787182Y-11688031D02*
X10796705Y-11707079D01*
X10796705Y-11707079D02*
X10806229Y-11745174D01*
X10806229Y-11745174D02*
X10806229Y-11792793D01*
X10806229Y-11792793D02*
X10796705Y-11830888D01*
X10796705Y-11830888D02*
X10787182Y-11849936D01*
X10787182Y-11849936D02*
X10777658Y-11859460D01*
X10777658Y-11859460D02*
X10758610Y-11868984D01*
X10758610Y-11868984D02*
X10739563Y-11868984D01*
X10739563Y-11868984D02*
X10720515Y-11859460D01*
X10720515Y-11859460D02*
X10710991Y-11849936D01*
X10710991Y-11849936D02*
X10701467Y-11830888D01*
X10701467Y-11830888D02*
X10691944Y-11792793D01*
X10691944Y-11792793D02*
X10691944Y-11745174D01*
X10691944Y-11745174D02*
X10701467Y-11707079D01*
X10701467Y-11707079D02*
X10710991Y-11688031D01*
X10710991Y-11688031D02*
X10720515Y-11678508D01*
X10720515Y-11678508D02*
X10739563Y-11668984D01*
X10930039Y-11668984D02*
X10949086Y-11668984D01*
X10949086Y-11668984D02*
X10968134Y-11678508D01*
X10968134Y-11678508D02*
X10977658Y-11688031D01*
X10977658Y-11688031D02*
X10987182Y-11707079D01*
X10987182Y-11707079D02*
X10996705Y-11745174D01*
X10996705Y-11745174D02*
X10996705Y-11792793D01*
X10996705Y-11792793D02*
X10987182Y-11830888D01*
X10987182Y-11830888D02*
X10977658Y-11849936D01*
X10977658Y-11849936D02*
X10968134Y-11859460D01*
X10968134Y-11859460D02*
X10949086Y-11868984D01*
X10949086Y-11868984D02*
X10930039Y-11868984D01*
X10930039Y-11868984D02*
X10910991Y-11859460D01*
X10910991Y-11859460D02*
X10901467Y-11849936D01*
X10901467Y-11849936D02*
X10891944Y-11830888D01*
X10891944Y-11830888D02*
X10882420Y-11792793D01*
X10882420Y-11792793D02*
X10882420Y-11745174D01*
X10882420Y-11745174D02*
X10891944Y-11707079D01*
X10891944Y-11707079D02*
X10901467Y-11688031D01*
X10901467Y-11688031D02*
X10910991Y-11678508D01*
X10910991Y-11678508D02*
X10930039Y-11668984D01*
X11082420Y-11868984D02*
X11082420Y-11735650D01*
X11082420Y-11754698D02*
X11091944Y-11745174D01*
X11091944Y-11745174D02*
X11110991Y-11735650D01*
X11110991Y-11735650D02*
X11139563Y-11735650D01*
X11139563Y-11735650D02*
X11158610Y-11745174D01*
X11158610Y-11745174D02*
X11168134Y-11764222D01*
X11168134Y-11764222D02*
X11168134Y-11868984D01*
X11168134Y-11764222D02*
X11177658Y-11745174D01*
X11177658Y-11745174D02*
X11196705Y-11735650D01*
X11196705Y-11735650D02*
X11225277Y-11735650D01*
X11225277Y-11735650D02*
X11244324Y-11745174D01*
X11244324Y-11745174D02*
X11253848Y-11764222D01*
X11253848Y-11764222D02*
X11253848Y-11868984D01*
X11349086Y-11868984D02*
X11349086Y-11735650D01*
X11349086Y-11754698D02*
X11358610Y-11745174D01*
X11358610Y-11745174D02*
X11377658Y-11735650D01*
X11377658Y-11735650D02*
X11406229Y-11735650D01*
X11406229Y-11735650D02*
X11425277Y-11745174D01*
X11425277Y-11745174D02*
X11434801Y-11764222D01*
X11434801Y-11764222D02*
X11434801Y-11868984D01*
X11434801Y-11764222D02*
X11444324Y-11745174D01*
X11444324Y-11745174D02*
X11463372Y-11735650D01*
X11463372Y-11735650D02*
X11491943Y-11735650D01*
X11491943Y-11735650D02*
X11510991Y-11745174D01*
X11510991Y-11745174D02*
X11520515Y-11764222D01*
X11520515Y-11764222D02*
X11520515Y-11868984D01*
X11910991Y-11659460D02*
X11739563Y-11916603D01*
X12168134Y-11668984D02*
X12187182Y-11668984D01*
X12187182Y-11668984D02*
X12206229Y-11678508D01*
X12206229Y-11678508D02*
X12215753Y-11688031D01*
X12215753Y-11688031D02*
X12225277Y-11707079D01*
X12225277Y-11707079D02*
X12234801Y-11745174D01*
X12234801Y-11745174D02*
X12234801Y-11792793D01*
X12234801Y-11792793D02*
X12225277Y-11830888D01*
X12225277Y-11830888D02*
X12215753Y-11849936D01*
X12215753Y-11849936D02*
X12206229Y-11859460D01*
X12206229Y-11859460D02*
X12187182Y-11868984D01*
X12187182Y-11868984D02*
X12168134Y-11868984D01*
X12168134Y-11868984D02*
X12149086Y-11859460D01*
X12149086Y-11859460D02*
X12139563Y-11849936D01*
X12139563Y-11849936D02*
X12130039Y-11830888D01*
X12130039Y-11830888D02*
X12120515Y-11792793D01*
X12120515Y-11792793D02*
X12120515Y-11745174D01*
X12120515Y-11745174D02*
X12130039Y-11707079D01*
X12130039Y-11707079D02*
X12139563Y-11688031D01*
X12139563Y-11688031D02*
X12149086Y-11678508D01*
X12149086Y-11678508D02*
X12168134Y-11668984D01*
X12320515Y-11849936D02*
X12330039Y-11859460D01*
X12330039Y-11859460D02*
X12320515Y-11868984D01*
X12320515Y-11868984D02*
X12310991Y-11859460D01*
X12310991Y-11859460D02*
X12320515Y-11849936D01*
X12320515Y-11849936D02*
X12320515Y-11868984D01*
X12453848Y-11668984D02*
X12472896Y-11668984D01*
X12472896Y-11668984D02*
X12491944Y-11678508D01*
X12491944Y-11678508D02*
X12501467Y-11688031D01*
X12501467Y-11688031D02*
X12510991Y-11707079D01*
X12510991Y-11707079D02*
X12520515Y-11745174D01*
X12520515Y-11745174D02*
X12520515Y-11792793D01*
X12520515Y-11792793D02*
X12510991Y-11830888D01*
X12510991Y-11830888D02*
X12501467Y-11849936D01*
X12501467Y-11849936D02*
X12491944Y-11859460D01*
X12491944Y-11859460D02*
X12472896Y-11868984D01*
X12472896Y-11868984D02*
X12453848Y-11868984D01*
X12453848Y-11868984D02*
X12434801Y-11859460D01*
X12434801Y-11859460D02*
X12425277Y-11849936D01*
X12425277Y-11849936D02*
X12415753Y-11830888D01*
X12415753Y-11830888D02*
X12406229Y-11792793D01*
X12406229Y-11792793D02*
X12406229Y-11745174D01*
X12406229Y-11745174D02*
X12415753Y-11707079D01*
X12415753Y-11707079D02*
X12425277Y-11688031D01*
X12425277Y-11688031D02*
X12434801Y-11678508D01*
X12434801Y-11678508D02*
X12453848Y-11668984D01*
X12587182Y-11668984D02*
X12710991Y-11668984D01*
X12710991Y-11668984D02*
X12644325Y-11745174D01*
X12644325Y-11745174D02*
X12672896Y-11745174D01*
X12672896Y-11745174D02*
X12691944Y-11754698D01*
X12691944Y-11754698D02*
X12701467Y-11764222D01*
X12701467Y-11764222D02*
X12710991Y-11783269D01*
X12710991Y-11783269D02*
X12710991Y-11830888D01*
X12710991Y-11830888D02*
X12701467Y-11849936D01*
X12701467Y-11849936D02*
X12691944Y-11859460D01*
X12691944Y-11859460D02*
X12672896Y-11868984D01*
X12672896Y-11868984D02*
X12615753Y-11868984D01*
X12615753Y-11868984D02*
X12596706Y-11859460D01*
X12596706Y-11859460D02*
X12587182Y-11849936D01*
X12806229Y-11868984D02*
X12844325Y-11868984D01*
X12844325Y-11868984D02*
X12863372Y-11859460D01*
X12863372Y-11859460D02*
X12872896Y-11849936D01*
X12872896Y-11849936D02*
X12891944Y-11821365D01*
X12891944Y-11821365D02*
X12901467Y-11783269D01*
X12901467Y-11783269D02*
X12901467Y-11707079D01*
X12901467Y-11707079D02*
X12891944Y-11688031D01*
X12891944Y-11688031D02*
X12882420Y-11678508D01*
X12882420Y-11678508D02*
X12863372Y-11668984D01*
X12863372Y-11668984D02*
X12825277Y-11668984D01*
X12825277Y-11668984D02*
X12806229Y-11678508D01*
X12806229Y-11678508D02*
X12796706Y-11688031D01*
X12796706Y-11688031D02*
X12787182Y-11707079D01*
X12787182Y-11707079D02*
X12787182Y-11754698D01*
X12787182Y-11754698D02*
X12796706Y-11773746D01*
X12796706Y-11773746D02*
X12806229Y-11783269D01*
X12806229Y-11783269D02*
X12825277Y-11792793D01*
X12825277Y-11792793D02*
X12863372Y-11792793D01*
X12863372Y-11792793D02*
X12882420Y-11783269D01*
X12882420Y-11783269D02*
X12891944Y-11773746D01*
X12891944Y-11773746D02*
X12901467Y-11754698D01*
X13072896Y-11735650D02*
X13072896Y-11868984D01*
X13025277Y-11659460D02*
X12977658Y-11802317D01*
X12977658Y-11802317D02*
X13101467Y-11802317D01*
X13168134Y-11668984D02*
X13168134Y-11707079D01*
X13244325Y-11668984D02*
X13244325Y-11707079D01*
X13539563Y-11945174D02*
X13530039Y-11935650D01*
X13530039Y-11935650D02*
X13510991Y-11907079D01*
X13510991Y-11907079D02*
X13501468Y-11888031D01*
X13501468Y-11888031D02*
X13491944Y-11859460D01*
X13491944Y-11859460D02*
X13482420Y-11811841D01*
X13482420Y-11811841D02*
X13482420Y-11773746D01*
X13482420Y-11773746D02*
X13491944Y-11726127D01*
X13491944Y-11726127D02*
X13501468Y-11697555D01*
X13501468Y-11697555D02*
X13510991Y-11678508D01*
X13510991Y-11678508D02*
X13530039Y-11649936D01*
X13530039Y-11649936D02*
X13539563Y-11640412D01*
X13606229Y-11688031D02*
X13615753Y-11678508D01*
X13615753Y-11678508D02*
X13634801Y-11668984D01*
X13634801Y-11668984D02*
X13682420Y-11668984D01*
X13682420Y-11668984D02*
X13701468Y-11678508D01*
X13701468Y-11678508D02*
X13710991Y-11688031D01*
X13710991Y-11688031D02*
X13720515Y-11707079D01*
X13720515Y-11707079D02*
X13720515Y-11726127D01*
X13720515Y-11726127D02*
X13710991Y-11754698D01*
X13710991Y-11754698D02*
X13596706Y-11868984D01*
X13596706Y-11868984D02*
X13720515Y-11868984D01*
X13834801Y-11754698D02*
X13815753Y-11745174D01*
X13815753Y-11745174D02*
X13806229Y-11735650D01*
X13806229Y-11735650D02*
X13796706Y-11716603D01*
X13796706Y-11716603D02*
X13796706Y-11707079D01*
X13796706Y-11707079D02*
X13806229Y-11688031D01*
X13806229Y-11688031D02*
X13815753Y-11678508D01*
X13815753Y-11678508D02*
X13834801Y-11668984D01*
X13834801Y-11668984D02*
X13872896Y-11668984D01*
X13872896Y-11668984D02*
X13891944Y-11678508D01*
X13891944Y-11678508D02*
X13901468Y-11688031D01*
X13901468Y-11688031D02*
X13910991Y-11707079D01*
X13910991Y-11707079D02*
X13910991Y-11716603D01*
X13910991Y-11716603D02*
X13901468Y-11735650D01*
X13901468Y-11735650D02*
X13891944Y-11745174D01*
X13891944Y-11745174D02*
X13872896Y-11754698D01*
X13872896Y-11754698D02*
X13834801Y-11754698D01*
X13834801Y-11754698D02*
X13815753Y-11764222D01*
X13815753Y-11764222D02*
X13806229Y-11773746D01*
X13806229Y-11773746D02*
X13796706Y-11792793D01*
X13796706Y-11792793D02*
X13796706Y-11830888D01*
X13796706Y-11830888D02*
X13806229Y-11849936D01*
X13806229Y-11849936D02*
X13815753Y-11859460D01*
X13815753Y-11859460D02*
X13834801Y-11868984D01*
X13834801Y-11868984D02*
X13872896Y-11868984D01*
X13872896Y-11868984D02*
X13891944Y-11859460D01*
X13891944Y-11859460D02*
X13901468Y-11849936D01*
X13901468Y-11849936D02*
X13910991Y-11830888D01*
X13910991Y-11830888D02*
X13910991Y-11792793D01*
X13910991Y-11792793D02*
X13901468Y-11773746D01*
X13901468Y-11773746D02*
X13891944Y-11764222D01*
X13891944Y-11764222D02*
X13872896Y-11754698D01*
X14149087Y-11868984D02*
X14149087Y-11668984D01*
X14234801Y-11868984D02*
X14234801Y-11764222D01*
X14234801Y-11764222D02*
X14225277Y-11745174D01*
X14225277Y-11745174D02*
X14206230Y-11735650D01*
X14206230Y-11735650D02*
X14177658Y-11735650D01*
X14177658Y-11735650D02*
X14158610Y-11745174D01*
X14158610Y-11745174D02*
X14149087Y-11754698D01*
X14358610Y-11868984D02*
X14339563Y-11859460D01*
X14339563Y-11859460D02*
X14330039Y-11849936D01*
X14330039Y-11849936D02*
X14320515Y-11830888D01*
X14320515Y-11830888D02*
X14320515Y-11773746D01*
X14320515Y-11773746D02*
X14330039Y-11754698D01*
X14330039Y-11754698D02*
X14339563Y-11745174D01*
X14339563Y-11745174D02*
X14358610Y-11735650D01*
X14358610Y-11735650D02*
X14387182Y-11735650D01*
X14387182Y-11735650D02*
X14406230Y-11745174D01*
X14406230Y-11745174D02*
X14415753Y-11754698D01*
X14415753Y-11754698D02*
X14425277Y-11773746D01*
X14425277Y-11773746D02*
X14425277Y-11830888D01*
X14425277Y-11830888D02*
X14415753Y-11849936D01*
X14415753Y-11849936D02*
X14406230Y-11859460D01*
X14406230Y-11859460D02*
X14387182Y-11868984D01*
X14387182Y-11868984D02*
X14358610Y-11868984D01*
X14539563Y-11868984D02*
X14520515Y-11859460D01*
X14520515Y-11859460D02*
X14510991Y-11840412D01*
X14510991Y-11840412D02*
X14510991Y-11668984D01*
X14691944Y-11859460D02*
X14672896Y-11868984D01*
X14672896Y-11868984D02*
X14634801Y-11868984D01*
X14634801Y-11868984D02*
X14615753Y-11859460D01*
X14615753Y-11859460D02*
X14606230Y-11840412D01*
X14606230Y-11840412D02*
X14606230Y-11764222D01*
X14606230Y-11764222D02*
X14615753Y-11745174D01*
X14615753Y-11745174D02*
X14634801Y-11735650D01*
X14634801Y-11735650D02*
X14672896Y-11735650D01*
X14672896Y-11735650D02*
X14691944Y-11745174D01*
X14691944Y-11745174D02*
X14701468Y-11764222D01*
X14701468Y-11764222D02*
X14701468Y-11783269D01*
X14701468Y-11783269D02*
X14606230Y-11802317D01*
X14777658Y-11859460D02*
X14796706Y-11868984D01*
X14796706Y-11868984D02*
X14834801Y-11868984D01*
X14834801Y-11868984D02*
X14853849Y-11859460D01*
X14853849Y-11859460D02*
X14863372Y-11840412D01*
X14863372Y-11840412D02*
X14863372Y-11830888D01*
X14863372Y-11830888D02*
X14853849Y-11811841D01*
X14853849Y-11811841D02*
X14834801Y-11802317D01*
X14834801Y-11802317D02*
X14806230Y-11802317D01*
X14806230Y-11802317D02*
X14787182Y-11792793D01*
X14787182Y-11792793D02*
X14777658Y-11773746D01*
X14777658Y-11773746D02*
X14777658Y-11764222D01*
X14777658Y-11764222D02*
X14787182Y-11745174D01*
X14787182Y-11745174D02*
X14806230Y-11735650D01*
X14806230Y-11735650D02*
X14834801Y-11735650D01*
X14834801Y-11735650D02*
X14853849Y-11745174D01*
X14930039Y-11945174D02*
X14939563Y-11935650D01*
X14939563Y-11935650D02*
X14958611Y-11907079D01*
X14958611Y-11907079D02*
X14968134Y-11888031D01*
X14968134Y-11888031D02*
X14977658Y-11859460D01*
X14977658Y-11859460D02*
X14987182Y-11811841D01*
X14987182Y-11811841D02*
X14987182Y-11773746D01*
X14987182Y-11773746D02*
X14977658Y-11726127D01*
X14977658Y-11726127D02*
X14968134Y-11697555D01*
X14968134Y-11697555D02*
X14958611Y-11678508D01*
X14958611Y-11678508D02*
X14939563Y-11649936D01*
X14939563Y-11649936D02*
X14930039Y-11640412D01*
M02*
