M48
; DRILL file {KiCad 8.0.4} date 2024-11-26T19:47:16-0600
; FORMAT={-:-/ absolute / metric / decimal}
; #@! TF.CreationDate,2024-11-26T19:47:16-06:00
; #@! TF.GenerationSoftware,Kicad,Pcbnew,8.0.4
; #@! TF.FileFunction,Plated,1,2,PTH
FMAT,2
METRIC
; #@! TA.AperFunction,Plated,PTH,ViaDrill
T1C0.500
; #@! TA.AperFunction,Plated,PTH,ComponentDrill
T2C0.800
; #@! TA.AperFunction,Plated,PTH,ComponentDrill
T3C1.000
%
G90
G05
T1
X114.3Y-104.14
X132.715Y-87.63
T2
X101.6Y-76.2
X101.6Y-78.74
X101.6Y-81.28
X101.6Y-83.82
X101.6Y-86.36
X101.6Y-88.9
X101.6Y-91.44
X101.6Y-93.98
X101.6Y-96.52
X101.6Y-99.06
X101.6Y-101.6
X101.6Y-104.14
X104.14Y-76.2
X104.14Y-78.74
X104.14Y-81.28
X104.14Y-83.82
X104.14Y-86.36
X104.14Y-88.9
X104.14Y-91.44
X104.14Y-93.98
X104.14Y-96.52
X104.14Y-99.06
X104.14Y-101.6
X104.14Y-104.14
X106.68Y-76.2
X106.68Y-78.74
X106.68Y-81.28
X106.68Y-83.82
X106.68Y-86.36
X106.68Y-88.9
X106.68Y-91.44
X106.68Y-93.98
X106.68Y-96.52
X106.68Y-99.06
X106.68Y-101.6
X106.68Y-104.14
X116.84Y-76.2
X116.84Y-78.74
X116.84Y-81.28
X116.84Y-83.82
X116.84Y-86.36
X116.84Y-88.9
X116.84Y-91.44
X116.84Y-93.98
X116.84Y-96.52
X116.84Y-99.06
X116.84Y-101.6
X116.84Y-104.14
X119.38Y-76.2
X119.38Y-78.74
X119.38Y-81.28
X119.38Y-83.82
X119.38Y-86.36
X119.38Y-88.9
X119.38Y-91.44
X119.38Y-93.98
X119.38Y-96.52
X119.38Y-99.06
X119.38Y-101.6
X119.38Y-104.14
X121.92Y-76.2
X121.92Y-78.74
X121.92Y-81.28
X121.92Y-83.82
X121.92Y-86.36
X121.92Y-88.9
X121.92Y-91.44
X121.92Y-93.98
X121.92Y-96.52
X121.92Y-99.06
X121.92Y-101.6
X121.92Y-104.14
X128.27Y-80.01
X128.27Y-82.55
X128.27Y-85.09
X128.27Y-87.63
X128.27Y-90.17
X130.81Y-77.47
X130.81Y-80.01
X130.81Y-82.55
X130.81Y-85.09
X130.81Y-87.63
X130.81Y-90.17
X130.81Y-92.71
X133.35Y-77.47
X133.35Y-80.01
X133.35Y-90.17
X133.35Y-92.71
X135.89Y-77.47
X135.89Y-80.01
X135.89Y-90.17
X135.89Y-92.71
X138.43Y-77.47
X138.43Y-80.01
X138.43Y-82.55
X138.43Y-85.09
X138.43Y-87.63
X138.43Y-90.17
X138.43Y-92.71
X140.97Y-80.01
X140.97Y-82.55
X140.97Y-85.09
X140.97Y-87.63
X140.97Y-90.17
T3
X125.73Y-99.06
X125.73Y-101.6
X125.73Y-104.14
X129.54Y-99.075
X129.54Y-101.615
X129.54Y-104.155
X133.35Y-99.075
X133.35Y-101.615
X133.35Y-104.155
X137.16Y-99.075
X137.16Y-101.615
X137.16Y-104.155
X140.97Y-99.06
X140.97Y-101.6
X140.97Y-104.14
X144.78Y-99.075
X144.78Y-101.615
X144.78Y-104.155
X146.05Y-78.755
X148.59Y-76.215
X148.59Y-78.755
X148.59Y-81.295
X148.59Y-87.63
X148.59Y-90.17
X148.59Y-92.71
X148.59Y-99.075
X148.59Y-101.615
X148.59Y-104.155
M30
