G04 #@! TF.GenerationSoftware,KiCad,Pcbnew,8.0.4*
G04 #@! TF.CreationDate,2024-11-26T19:46:24-06:00*
G04 #@! TF.ProjectId,Flash-2716,466c6173-682d-4323-9731-362e6b696361,rev?*
G04 #@! TF.SameCoordinates,Original*
G04 #@! TF.FileFunction,Copper,L2,Bot*
G04 #@! TF.FilePolarity,Positive*
%FSLAX46Y46*%
G04 Gerber Fmt 4.6, Leading zero omitted, Abs format (unit mm)*
G04 Created by KiCad (PCBNEW 8.0.4) date 2024-11-26 19:46:24*
%MOMM*%
%LPD*%
G01*
G04 APERTURE LIST*
G04 #@! TA.AperFunction,ComponentPad*
%ADD10C,1.700000*%
G04 #@! TD*
G04 #@! TA.AperFunction,ComponentPad*
%ADD11O,1.700000X1.700000*%
G04 #@! TD*
G04 #@! TA.AperFunction,ComponentPad*
%ADD12R,1.600000X1.600000*%
G04 #@! TD*
G04 #@! TA.AperFunction,ComponentPad*
%ADD13O,1.600000X1.600000*%
G04 #@! TD*
G04 #@! TA.AperFunction,ComponentPad*
%ADD14R,1.700000X1.700000*%
G04 #@! TD*
G04 #@! TA.AperFunction,ComponentPad*
%ADD15R,1.422400X1.422400*%
G04 #@! TD*
G04 #@! TA.AperFunction,ComponentPad*
%ADD16C,1.422400*%
G04 #@! TD*
G04 #@! TA.AperFunction,ComponentPad*
%ADD17O,1.422400X1.422400*%
G04 #@! TD*
G04 #@! TA.AperFunction,ViaPad*
%ADD18C,1.000000*%
G04 #@! TD*
G04 #@! TA.AperFunction,Conductor*
%ADD19C,0.254000*%
G04 #@! TD*
G04 #@! TA.AperFunction,Conductor*
%ADD20C,0.508000*%
G04 #@! TD*
G04 APERTURE END LIST*
D10*
X148590000Y-76215000D03*
D11*
X148590000Y-78755000D03*
X148590000Y-81295000D03*
D10*
X148590000Y-99075000D03*
D11*
X148590000Y-101615000D03*
X148590000Y-104155000D03*
D12*
X106680000Y-76200000D03*
D13*
X106680000Y-78740000D03*
X106680000Y-81280000D03*
X106680000Y-83820000D03*
X106680000Y-86360000D03*
X106680000Y-88900000D03*
X106680000Y-91440000D03*
X106680000Y-93980000D03*
X106680000Y-96520000D03*
X106680000Y-99060000D03*
X106680000Y-101600000D03*
X106680000Y-104140000D03*
X121920000Y-104140000D03*
X121920000Y-101600000D03*
X121920000Y-99060000D03*
X121920000Y-96520000D03*
X121920000Y-93980000D03*
X121920000Y-91440000D03*
X121920000Y-88900000D03*
X121920000Y-86360000D03*
X121920000Y-83820000D03*
X121920000Y-81280000D03*
X121920000Y-78740000D03*
X121920000Y-76200000D03*
D10*
X146050000Y-78755000D03*
D12*
X104140000Y-76200000D03*
D13*
X104140000Y-78740000D03*
X104140000Y-81280000D03*
X104140000Y-83820000D03*
X104140000Y-86360000D03*
X104140000Y-88900000D03*
X104140000Y-91440000D03*
X104140000Y-93980000D03*
X104140000Y-96520000D03*
X104140000Y-99060000D03*
X104140000Y-101600000D03*
X104140000Y-104140000D03*
X119380000Y-104140000D03*
X119380000Y-101600000D03*
X119380000Y-99060000D03*
X119380000Y-96520000D03*
X119380000Y-93980000D03*
X119380000Y-91440000D03*
X119380000Y-88900000D03*
X119380000Y-86360000D03*
X119380000Y-83820000D03*
X119380000Y-81280000D03*
X119380000Y-78740000D03*
X119380000Y-76200000D03*
D10*
X137160000Y-99075000D03*
D11*
X137160000Y-101615000D03*
X137160000Y-104155000D03*
D14*
X125730000Y-99060000D03*
D11*
X125730000Y-101600000D03*
X125730000Y-104140000D03*
D10*
X148590000Y-87630000D03*
D11*
X148590000Y-90170000D03*
X148590000Y-92710000D03*
D10*
X140970000Y-99060000D03*
D11*
X140970000Y-101600000D03*
X140970000Y-104140000D03*
D10*
X144780000Y-99075000D03*
D11*
X144780000Y-101615000D03*
X144780000Y-104155000D03*
D10*
X133350000Y-99075000D03*
D11*
X133350000Y-101615000D03*
X133350000Y-104155000D03*
D15*
X135890000Y-80010000D03*
D16*
X133350000Y-77470000D03*
X133350000Y-80010000D03*
X130810000Y-77470000D03*
X128270000Y-80010000D03*
X130810000Y-80010000D03*
X128270000Y-82550000D03*
X130810000Y-82550000D03*
X128270000Y-85090000D03*
X130810000Y-85090000D03*
X128270000Y-87630000D03*
X130810000Y-87630000D03*
X128270000Y-90170000D03*
X130810000Y-92710000D03*
X130810000Y-90170000D03*
X133350000Y-92710000D03*
X133350000Y-90170000D03*
X135890000Y-92710000D03*
X135890000Y-90170000D03*
X138430000Y-92710000D03*
X140970000Y-90170000D03*
X138430000Y-90170000D03*
X140970000Y-87630000D03*
X138430000Y-87630000D03*
X140970000Y-85090000D03*
X138430000Y-85090000D03*
X140970000Y-82550000D03*
X138430000Y-82550000D03*
X140970000Y-80010000D03*
X138430000Y-77470000D03*
X138430000Y-80010000D03*
X135890000Y-77470000D03*
D10*
X129540000Y-99075000D03*
D11*
X129540000Y-101615000D03*
X129540000Y-104155000D03*
D15*
X101600000Y-76200000D03*
D17*
X101600000Y-78740000D03*
X101600000Y-81280000D03*
X101600000Y-83820000D03*
X101600000Y-86360000D03*
X101600000Y-88900000D03*
X101600000Y-91440000D03*
X101600000Y-93980000D03*
X101600000Y-96520000D03*
X101600000Y-99060000D03*
X101600000Y-101600000D03*
X101600000Y-104140000D03*
D16*
X116840000Y-76200000D03*
D17*
X116840000Y-78740000D03*
X116840000Y-81280000D03*
X116840000Y-83820000D03*
X116840000Y-86360000D03*
X116840000Y-88900000D03*
X116840000Y-91440000D03*
X116840000Y-93980000D03*
X116840000Y-96520000D03*
X116840000Y-99060000D03*
X116840000Y-101600000D03*
X116840000Y-104140000D03*
D18*
X132715000Y-87630000D03*
X114300000Y-104140000D03*
D19*
X121982518Y-97790000D02*
G75*
G03*
X123501856Y-97160664I-18J2148700D01*
G01*
X125973420Y-95871053D02*
G75*
G03*
X123955654Y-96706822I-20J-2853547D01*
G01*
X123501846Y-97160654D02*
X123955666Y-96706834D01*
X125973420Y-95871053D02*
X130148096Y-95871053D01*
X134619997Y-92152238D02*
G75*
G02*
X135123611Y-90936385I1719403J38D01*
G01*
X135123613Y-90936387D02*
X135890000Y-90170000D01*
X133776568Y-94188432D02*
G75*
G03*
X134619992Y-92152238I-2036268J2036232D01*
G01*
X119380000Y-99060000D02*
X119707768Y-98732232D01*
X130148096Y-95871053D02*
G75*
G03*
X133776549Y-94188413I-475896J5779753D01*
G01*
X119707768Y-98732232D02*
G75*
G02*
X121982518Y-97790018I2274732J-2274768D01*
G01*
X139231773Y-96988227D02*
G75*
G02*
X137296172Y-97789981I-1935573J1935527D01*
G01*
X135255000Y-99831170D02*
G75*
G02*
X133486154Y-101600000I-1768800J-30D01*
G01*
X135255000Y-99831170D02*
G75*
G02*
X137296172Y-97790000I2041200J-30D01*
G01*
X133365000Y-101600000D02*
X133350000Y-101615000D01*
X133486154Y-101600000D02*
X133365000Y-101600000D01*
X142875000Y-83022999D02*
X142875000Y-88192735D01*
X138430000Y-82550000D02*
X138687456Y-82292544D01*
X141131955Y-81280000D02*
G75*
G02*
X142875000Y-83022999I45J-1743000D01*
G01*
X142875000Y-88192735D02*
G75*
G02*
X139231772Y-96988226I-12438650J-5D01*
G01*
X138687456Y-82292544D02*
G75*
G02*
X141131955Y-81279984I2444544J-2444556D01*
G01*
X131926953Y-97790000D02*
G75*
G03*
X139770480Y-94541143I47J11092400D01*
G01*
X127635000Y-99823637D02*
G75*
G03*
X129411363Y-101600000I1776400J37D01*
G01*
X129668637Y-97790000D02*
G75*
G03*
X127635000Y-99823637I-37J-2033600D01*
G01*
X129525000Y-101600000D02*
X129540000Y-101615000D01*
X129411363Y-101600000D02*
X129525000Y-101600000D01*
X131926953Y-97790000D02*
X129668637Y-97790000D01*
X142240000Y-85090000D02*
X142240000Y-88285546D01*
X138551691Y-83820000D02*
X140970000Y-83820000D01*
X130810000Y-77470000D02*
X131576868Y-78236868D01*
X142240000Y-88285546D02*
G75*
G02*
X139770474Y-94541136I-9166300J3346D01*
G01*
X140970000Y-83820000D02*
G75*
G02*
X142240000Y-85090000I0J-1270000D01*
G01*
X132923887Y-81488887D02*
G75*
G03*
X138551691Y-83820011I5627813J5627787D01*
G01*
X132080000Y-79451613D02*
G75*
G03*
X132923892Y-81488882I2881100J13D01*
G01*
X131576868Y-78236868D02*
G75*
G02*
X132079975Y-79451613I-1214668J-1214632D01*
G01*
D20*
X129540000Y-99075000D02*
X133350000Y-99075000D01*
X116840000Y-76200000D02*
X119380000Y-76200000D01*
X149860000Y-101832898D02*
X149860000Y-95032102D01*
X107206329Y-105410000D02*
X126510121Y-105410000D01*
X148590000Y-104155000D02*
X149116051Y-103628949D01*
X101600000Y-104140000D02*
X104140000Y-104140000D01*
X149116051Y-93236051D02*
X148590000Y-92710000D01*
X104140000Y-104140000D02*
G75*
G03*
X107206329Y-105409986I3066300J3066700D01*
G01*
X129540000Y-104155000D02*
G75*
G02*
X126510121Y-105410026I-3029900J3029900D01*
G01*
X149116051Y-103628949D02*
G75*
G03*
X149859998Y-101832898I-1796051J1796049D01*
G01*
X149860000Y-95032102D02*
G75*
G03*
X149116052Y-93236050I-2540000J2D01*
G01*
D19*
X143510000Y-88160413D02*
X143510000Y-82549998D01*
X137619619Y-100505381D02*
X138945918Y-99179082D01*
X140970000Y-80010000D02*
X140970000Y-80010000D01*
X143510000Y-82549998D02*
G75*
G03*
X140970000Y-80010000I-2540000J-2D01*
G01*
X143510000Y-88160413D02*
G75*
G02*
X138945901Y-99179065I-15582700J13D01*
G01*
X137160000Y-101615000D02*
G75*
G02*
X137619627Y-100505389I1569200J0D01*
G01*
X133876051Y-80536051D02*
X133350000Y-80010000D01*
X138430000Y-81280000D02*
X135672102Y-81280000D01*
X143111729Y-80246729D02*
X142053932Y-79188932D01*
X144145000Y-93935063D02*
X144145000Y-82741266D01*
X140970000Y-101600000D02*
G75*
G02*
X141419022Y-100515988I1533000J0D01*
G01*
X135672102Y-81280000D02*
G75*
G02*
X133876050Y-80536052I-2J2540000D01*
G01*
X141419017Y-100515983D02*
G75*
G03*
X144144986Y-93935063I-6580617J6580883D01*
G01*
X140970000Y-78740000D02*
G75*
G03*
X139700000Y-80010000I0J-1270000D01*
G01*
X139700000Y-80010000D02*
G75*
G02*
X138430000Y-81280000I-1270000J0D01*
G01*
X142053932Y-79188932D02*
G75*
G03*
X140970000Y-78740005I-1083832J-1083868D01*
G01*
X144145000Y-82741266D02*
G75*
G03*
X143111710Y-80246748I-3527800J-34D01*
G01*
X146050000Y-92999057D02*
X146050000Y-98549005D01*
X136416096Y-78740000D02*
X138645518Y-78740000D01*
X144780000Y-82706454D02*
X144780000Y-89932966D01*
X145396592Y-91421592D02*
G75*
G02*
X146050022Y-92999057I-1577492J-1577508D01*
G01*
X140178537Y-78105000D02*
G75*
G03*
X139361604Y-78443356I-37J-1155300D01*
G01*
X146050000Y-98549005D02*
G75*
G02*
X144779994Y-101614994I-4335900J5D01*
G01*
X140178537Y-78105000D02*
G75*
G02*
X144780000Y-82706454I-37J-4601500D01*
G01*
X136416096Y-78740000D02*
G75*
G02*
X133349994Y-77470006I4J4336200D01*
G01*
X139361624Y-78443376D02*
G75*
G02*
X138645518Y-78740018I-716124J716076D01*
G01*
X145396592Y-91421592D02*
G75*
G02*
X144780031Y-89932966I1488708J1488592D01*
G01*
X138430000Y-77470000D02*
X140374888Y-77470000D01*
X145415000Y-82510112D02*
X145415000Y-89560572D01*
X146685000Y-92626510D02*
X146685000Y-97015897D01*
X145415000Y-82510112D02*
G75*
G03*
X140374888Y-77470000I-5040100J12D01*
G01*
X148590000Y-101615000D02*
G75*
G02*
X146684990Y-97015897I4599100J4599100D01*
G01*
X145846010Y-90601010D02*
G75*
G02*
X146684990Y-92626510I-2025510J-2025490D01*
G01*
X145846010Y-90601010D02*
G75*
G02*
X145415023Y-89560572I1040290J1040410D01*
G01*
X146050000Y-84037916D02*
X146050000Y-82921616D01*
X133350000Y-78740000D02*
X133672737Y-78740000D01*
X139763455Y-76200000D02*
X133350000Y-76200000D01*
X135289816Y-79409816D02*
X135890000Y-80010000D01*
X143991176Y-77951176D02*
G75*
G03*
X139763455Y-76200029I-4227676J-4227724D01*
G01*
X135289816Y-79409816D02*
G75*
G03*
X133672737Y-78739975I-1617116J-1617084D01*
G01*
X146050000Y-84037916D02*
G75*
G03*
X148589999Y-90170001I8672100J16D01*
G01*
X132080000Y-77470000D02*
G75*
G03*
X133350000Y-78740000I1270000J0D01*
G01*
X133350000Y-76200000D02*
G75*
G03*
X132080000Y-77470000I0J-1270000D01*
G01*
X146050000Y-82921616D02*
G75*
G03*
X143991192Y-77951160I-7029300J16D01*
G01*
X132080000Y-92710000D02*
X132080000Y-92492102D01*
X117405467Y-95250000D02*
X129540000Y-95250000D01*
X116840000Y-104140000D02*
X119380000Y-104140000D01*
X114935000Y-102235005D02*
X114935000Y-97720467D01*
X132823949Y-90696051D02*
X133350000Y-90170000D01*
X132823949Y-90696051D02*
G75*
G03*
X132080002Y-92492102I1796051J-1796049D01*
G01*
X114935000Y-97720467D02*
G75*
G02*
X117405467Y-95250000I2470500J-33D01*
G01*
X129540000Y-95250000D02*
G75*
G03*
X132080000Y-92710000I0J2540000D01*
G01*
X116840000Y-104140000D02*
G75*
G02*
X114935000Y-102235005I0J1905000D01*
G01*
X126736975Y-87258025D02*
X127263026Y-86731974D01*
X119380000Y-88900000D02*
X119906051Y-88373949D01*
X140340420Y-88259580D02*
X140970000Y-87630000D01*
X121702102Y-87630000D02*
X125838949Y-87630000D01*
X128161051Y-86360000D02*
X132662317Y-86360000D01*
X119380000Y-88900000D02*
X116840000Y-88900000D01*
X127263026Y-86731974D02*
G75*
G02*
X128161051Y-86359966I898074J-898026D01*
G01*
X140340420Y-88259580D02*
G75*
G02*
X138794305Y-88900016I-1546120J1546080D01*
G01*
X137088384Y-88193384D02*
G75*
G03*
X132662317Y-86359991I-4426084J-4425916D01*
G01*
X119906051Y-88373949D02*
G75*
G02*
X121702102Y-87630002I1796049J-1796051D01*
G01*
X137088384Y-88193384D02*
G75*
G03*
X138794305Y-88900007I1705916J1705884D01*
G01*
X125838949Y-87630000D02*
G75*
G03*
X126736951Y-87258001I-49J1270000D01*
G01*
X106995769Y-77470000D02*
X122137923Y-77470000D01*
X101600000Y-76200000D02*
X104140000Y-76200000D01*
X104140000Y-76200000D02*
X104288693Y-76348693D01*
X122137923Y-77470000D02*
G75*
G02*
X128269980Y-80010020I-23J-8672000D01*
G01*
X106995769Y-77470000D02*
G75*
G02*
X104288705Y-76348681I31J3828400D01*
G01*
X101600000Y-86360000D02*
X104140000Y-86360000D01*
X128364674Y-81280000D02*
X129231872Y-81280000D01*
X119380000Y-81280000D02*
X119906051Y-80753949D01*
X121702102Y-80010000D02*
X125298606Y-80010000D01*
X116840000Y-81280000D02*
X119380000Y-81280000D01*
X129231872Y-81280000D02*
G75*
G02*
X134093937Y-83293905I28J-6876000D01*
G01*
X119906051Y-80753949D02*
G75*
G02*
X121702102Y-80010002I1796049J-1796051D01*
G01*
X125298606Y-80010000D02*
G75*
G02*
X127119005Y-80764013I-6J-2574500D01*
G01*
X138430000Y-85090000D02*
G75*
G02*
X134093901Y-83293941I0J6132200D01*
G01*
X127119009Y-80764009D02*
G75*
G03*
X128364674Y-81280015I1245691J1245609D01*
G01*
X101600000Y-96520000D02*
X104140000Y-96520000D01*
X138581619Y-91440000D02*
X138430000Y-91440000D01*
X135890000Y-88900000D02*
X133350000Y-88900000D01*
X116840000Y-93980000D02*
X119380000Y-93980000D01*
X130810000Y-91440000D02*
X128161051Y-91440000D01*
X119906051Y-93453949D02*
X119380000Y-93980000D01*
X140970000Y-90170000D02*
X140490816Y-90649184D01*
X127263025Y-91811975D02*
X126736974Y-92338026D01*
X125838949Y-92710000D02*
X121702102Y-92710000D01*
X126736974Y-92338026D02*
G75*
G02*
X125838949Y-92710034I-898074J898026D01*
G01*
X138581619Y-91440000D02*
G75*
G03*
X140490804Y-90649172I-19J2700000D01*
G01*
X132080000Y-90170000D02*
G75*
G02*
X130810000Y-91440000I-1270000J0D01*
G01*
X119906051Y-93453949D02*
G75*
G02*
X121702102Y-92710002I1796049J-1796051D01*
G01*
X137160000Y-90170000D02*
G75*
G03*
X135890000Y-88900000I-1270000J0D01*
G01*
X127263025Y-91811975D02*
G75*
G02*
X128161051Y-91439966I898075J-898025D01*
G01*
X132080000Y-90170000D02*
G75*
G02*
X133350000Y-88900000I1270000J0D01*
G01*
X138430000Y-91440000D02*
G75*
G02*
X137160000Y-90170000I0J1270000D01*
G01*
X119380000Y-101600000D02*
X119906051Y-101073949D01*
X116840000Y-101600000D02*
X119380000Y-101600000D01*
X121976321Y-100330000D02*
X121702102Y-100330000D01*
X129692685Y-96520000D02*
X125786307Y-96520000D01*
X133768086Y-94831914D02*
X135890000Y-92710000D01*
X123825000Y-98481321D02*
G75*
G02*
X121976321Y-100330000I-1848700J21D01*
G01*
X129692685Y-96520000D02*
G75*
G03*
X133768096Y-94831924I15J5763500D01*
G01*
X119906051Y-101073949D02*
G75*
G02*
X121702102Y-100330002I1796049J-1796051D01*
G01*
X125786307Y-96520000D02*
G75*
G03*
X123825000Y-98481321I-7J-1961300D01*
G01*
X101600000Y-91440000D02*
X104140000Y-91440000D01*
X101600000Y-81280000D02*
X104140000Y-81280000D01*
X116840000Y-99060000D02*
X119380000Y-99060000D01*
X101600000Y-78740000D02*
X104140000Y-78740000D01*
X116840000Y-86360000D02*
X119380000Y-86360000D01*
X119380000Y-86360000D02*
X119906051Y-85833949D01*
X128161051Y-83820000D02*
X129231880Y-83820000D01*
X126736975Y-84718025D02*
X127263026Y-84191974D01*
X121702102Y-85090000D02*
X125838949Y-85090000D01*
X129231880Y-83820000D02*
G75*
G02*
X138430016Y-87629984I20J-13008100D01*
G01*
X125838949Y-85090000D02*
G75*
G03*
X126736951Y-84718001I-49J1270000D01*
G01*
X119906051Y-85833949D02*
G75*
G02*
X121702102Y-85090002I1796049J-1796051D01*
G01*
X127263026Y-84191974D02*
G75*
G02*
X128161051Y-83819966I898074J-898026D01*
G01*
X101600000Y-99060000D02*
X104140000Y-99060000D01*
X101600000Y-93980000D02*
X104140000Y-93980000D01*
X116840000Y-102870000D02*
X121303231Y-102870000D01*
X126073273Y-97155000D02*
X129287165Y-97155000D01*
X115570000Y-98842102D02*
X115570000Y-101600000D01*
X116840000Y-96520000D02*
X116313949Y-97046051D01*
X116840000Y-96520000D02*
X119380000Y-96520000D01*
X124460000Y-99713231D02*
X124460000Y-98768273D01*
X137306872Y-93833128D02*
X138430000Y-92710000D01*
X121303231Y-102870000D02*
G75*
G03*
X124460000Y-99713231I-31J3156800D01*
G01*
X115570000Y-101600000D02*
G75*
G03*
X116840000Y-102870000I1270000J0D01*
G01*
X116313949Y-97046051D02*
G75*
G03*
X115570002Y-98842102I1796051J-1796049D01*
G01*
X137306872Y-93833128D02*
G75*
G02*
X129287165Y-97154969I-8019672J8019728D01*
G01*
X124460000Y-98768273D02*
G75*
G02*
X126073273Y-97155000I1613300J-27D01*
G01*
X101600000Y-88900000D02*
X104140000Y-88900000D01*
X119380000Y-78740000D02*
X116840000Y-78740000D01*
X101600000Y-83820000D02*
X104140000Y-83820000D01*
X101600000Y-101600000D02*
X104140000Y-101600000D01*
X119380000Y-83820000D02*
X116840000Y-83820000D01*
X114297357Y-75567643D02*
X114302644Y-75562356D01*
X100330000Y-78740000D02*
X100330000Y-76200000D01*
X115829287Y-74930000D02*
X136815658Y-74930000D01*
X101600000Y-74930000D02*
X107690713Y-74930000D01*
X107641924Y-80010000D02*
X101600000Y-80010000D01*
X110749290Y-76200000D02*
X112770773Y-76200000D01*
X109217357Y-75562357D02*
X109222644Y-75567644D01*
X115829287Y-74930000D02*
G75*
G03*
X114302650Y-75562362I13J-2159000D01*
G01*
X101600000Y-80010000D02*
G75*
G02*
X100330000Y-78740000I0J1270000D01*
G01*
X109222644Y-75567644D02*
G75*
G03*
X110749290Y-76200009I1526656J1526644D01*
G01*
X116840000Y-83820000D02*
G75*
G03*
X107641924Y-80009993I-9198100J-9198000D01*
G01*
X114297357Y-75567643D02*
G75*
G02*
X112770773Y-76199968I-1526557J1526543D01*
G01*
X136815658Y-74930000D02*
G75*
G02*
X146050020Y-78754980I42J-13059300D01*
G01*
X109217357Y-75562357D02*
G75*
G03*
X107690713Y-74929991I-1526657J-1526643D01*
G01*
X100330000Y-76200000D02*
G75*
G02*
X101600000Y-74930000I1270000J0D01*
G01*
X121702102Y-90170000D02*
X123190000Y-90170000D01*
X132080000Y-88265000D02*
X132715000Y-87630000D01*
X126736975Y-89798025D02*
X127263026Y-89271974D01*
X123190000Y-90170000D02*
X125838949Y-90170000D01*
X128161051Y-88900000D02*
X130918949Y-88900000D01*
X131816975Y-88528025D02*
X132080000Y-88265000D01*
X119380000Y-91440000D02*
X119906051Y-90913949D01*
X127263026Y-89271974D02*
G75*
G02*
X128161051Y-88899966I898074J-898026D01*
G01*
X131816975Y-88528025D02*
G75*
G02*
X130918949Y-88900034I-898075J898025D01*
G01*
X125838949Y-90170000D02*
G75*
G03*
X126736951Y-89798001I-49J1270000D01*
G01*
X119906051Y-90913949D02*
G75*
G02*
X121702102Y-90170002I1796049J-1796051D01*
G01*
X114300000Y-97790000D02*
X114300000Y-104140000D01*
X116840000Y-91440000D02*
X116502030Y-91777970D01*
X114300000Y-97094140D02*
X114300000Y-97790000D01*
X116502030Y-91777970D02*
G75*
G03*
X114300029Y-97094140I5316170J-5316130D01*
G01*
M02*
